<svg xmlns="http://www.w3.org/2000/svg" version="1.1" id="layer" x="0" y="0" viewBox="-153 -46 600 135.2" xml:space="preserve" width="600" height="135.2"><style id="style2">.st1{fill:#fff}</style><path style="fill:#061922" d="M-153-46h600V89.2h-600z" id="path4"/><path class="st1" d="M-41.7-17.1h-.7v-.7h.7zm-.7-5.9h-.7v-.3h.7zm-1.3 12.5v.7h-.3Zm-2 3.6h-.7v-.3zm-1 6.2h-.7v-.7h.7zm0 8.9H-48v-.3l.3-.3h1zm-.9 4.9-.3.3v.3h-.7v-.3h-.3v.3h-.7v-1h.3V12h.3v-.3c.3 0 1 0 .7-.3h.3c0 .4 0 1 .4 1.7zm-.4 8.2.3.3v.3l-.3.3v.3h-1v-.3h-.3v-.3l.3-.3h1zm-.3 3.9h-.3v.3h-.3v-.3h-.3v-.7h.3v-.7h.3v.3h.3zm-1.3-53.1v-1h.7v1zm.6 1.9c.7 0 .3-.7 1-.3v.7l-.3.3v.3h-1zm1 32.5c.7.3 0-.7.7-.3v.3h.3v.3h-1zm-2.3 7.2h-.7V13h.7zm0 10.5h-1v-.7h1zm.7 12.2v1h-1.3v-1zm-.7-6.9.3-.3h.7v.3h.3v.3h-.3v.3h-.3v1h-.7zm-.6 11.5.3.7h-.3v.3h-1v-.3h-.3l-.3-.7h-.3v.7h-.3v-.3h-.3v-1c.7.3 0-.3.7-.3v.3h.7V40h.3v.7h.3zm-1 3.6v-.7h.3zm.3 3.6c.7.3 0-.7.7-.3v.3h.3v.3h-.3v.7h.7v1.3h-.7v.7h.3v.3h-.3v.3h-.3v-.3h-.3c0-.3.3-1-.3-.7h-.3v-.7h.3v-.3h-.3v-.3h.3v-.7h.3v-.6zm0-1.7c.7.3 0-.7.7-.3v1h-.7zm-1 7.9h-1.3v-.7h.7V53h.6zm-1 1.6h-.7v-1h.7zm-.9-3.6-.3-.7h-.3v.3h-.3v.7h-.3c0-.3 0-.7-.3-.3h-.3v.7h-.7v-3.3h1l.3.3h.3v.3h.3v.3h.7v.6h.3v1h.7v.7h-.7c-.1-.2.2-.9-.4-.6m-2.7-5.9h.7v.7h-.7zm.7-18.3-.3-.7c.7.3 0-.3.7-.3l.3.3h.3v.7zm-.7-2-.3.3h-.3v-1h.3v-.7h-.3v-.6l.3-.3h.7v.3h.3v.3h.3v1l-.3.3zm1.4 20.3.3 1h-.3zm0-29.8h.7v.7h-.7zm1.3-13.8.3-.7.3-.3h.7v1h-.3v1h-.7v-.3h-.3zm.3-4.9v-.7h.7v.7Zm1.3 39.3v.7h-.7v-.7zm.7 0c.7.3 0-.7.7-.3v1h.3v.7h-.7v-.3h-.3zm.6-55.4zm1.3 64.6h.7v.7h-.7zm-7.5-13.1-.3.3h-.3v-1h.3zm7.5-62.3v1.3h.3l.7.3h.3v.7h-1v1h-.7v2h.3v.6h.3l.3-.3v.3l-.3.3v.3h.3c.3.3.3 1 0 1.6h-.3v.3h-1l-.3.7h-1.3v.7h.3v1.3h-.3v.7h1v.7h-1v.7h.3v1h-.3v.3h.3v.7h-.7v1h.3v-.3h.7v1h-.3v.3l-.7.3v2h-.7v.7h-.7v.7h.3c1 0 .3 1 .3 1.3h.3V-7h.3v-1.3h1v1.6h-.3v.3c0 .3-.7 0-.7.3v.7h.3v.3h.3v.3h.3v1.6h-.7v.3c-.3.3-1 0-1.6 0v-.7h-.3v.3h-.7v1.6h.7v.3h.3v.3h.3v.7h-.3v.3h-.3v.3h.3v.3h.3v1.3h-.3l-.3-1h-.3v.7h.3v.7h-1v.7h.3v.3h-.7v.3l-.3.3v.3h.3v.7h-.3v.3h.3v.3h.3l.3.3h.3v.7h-1v.7h-.7v1.3h1v1h-.3v.7h-1.3v2.3h.7v-1.6h.7v1.6h-.3v.3h-.7v.3h.7v.7h-1V16h-.7v2.6h-.7v2h.7v-.3h.3v-.7h-.3.7V19h.3v-.3h.7V20h-.3v2.3h-.3v.3h-1v.3h-.3l-.3.3v.7h.3l.3.3-.3.3v.3h.3l.3.3h.3v.3h-.3v.3h-.3v.3h.3v.3h-.3v.7h.7v.7h-.7v.7h.3v.3h.3v-.3h.3l.7.3h-.3v.7l-1.3.3v.3h.7v.7h-.7v.7h.7v-.7h.3v.3c.7 0 .3 1 .3 1.3h.3v.3h-.3v.3l-.3.3c-.7 0-.3-.7-.3-1h-.7v-.3h-.3v.7h-1v.7h.3v.3h-.3v.3h.3v.7h.3v1h.7V35h-.3v-.7h.3c.3 0 .3 0 .3.3h.3v.3h.3v1h-.3v.3h-.3v.3l-.3.3v.3c-.3.3-1.3 0-1.6.3h-.3v.3h.3v.7h-.3v.3h.3l.3.3h1v-.7h.3l.7.3h.3v.3h-1v2.6h-.7v-.3h-.3v-.3h-.7v.3l-.3.3v.3h1v1.3h.3v-.3h.7v.7h-.3v.3h-.3l-.3-.3h-.3v.7h-.7v1.3h.7v1.6h-.3v.7h.3l.3.3h.3v.7h-.3v1h.7v1h-.7v.7h.3c1 0 .3 1 .7 1.6 1-.3.3.7.3 1h.3v.3h.3v.3h.3v.3h.3v.3h.3v.3h.3v.3h2v.7h1.6v-.3h.3l.3-.3.3-.3v-.3h-.3c-.3-1.3-.3-2.6 0-3.6h.3v.7l.3-.3v-.7h.3c.7-.3.3.3.7.7h1v.3h.3v.3h.3v.7h.7v-1.6h-.3v-.3h-.3v-1h.3v-.3h-1.3V50h-.3v-.3h.3v-.3h-.3v-.3h.3v-.3h.7v.7h-.3v.7h.7v-.3h.3v-.3h.3V48h-.3v-.3h-.3v-.6h-.3v-.3h-2.3v-.7h.3v-.3h-.3v-.7h-.7v-.7h.7v-.3l.3-.3v-.7h1.3v1.3h1.3v-.7h-.7v-1.3h-.7v-2h-1v-.3h-.3V39h1v.3h.3v-1.6h.3v-.3h.3v-.7h-.3v-.3h1v-.7h-.7v-.3h-.3V35l.3-.3v-3.9h.3l.3.3h-.3v-.3h.3v-.3h-.3v-.3h-.3l-.3-.3h.3v-.7h-.7v-.7h-.3c-.7.3-.3-.3-.3-.7h-.7v-1.3h1v-.3h.3v.7h.3v-.3l.3-.3v-.7h.7v-1h-.3v-1h.7V22h.7v-.7h-.3V21h-.3v-3.3h-.6v.7h-.3V18h-.3v-1h.3v-.3h-.3v-.3h.7v-1h.3c1 0 .3 1 .7 1.6h.7v-1.3h.7v-4.3h-.7v-.7h.3v-.3l.3-.3v-2h.7V5.8h.7v-.3l.3-.3v-.7h-.3v-.3h-.3v-.3h-.4v-.3h-.3c-.3-.7 0-1.3 0-1.6h-.3v-.7h.3V.6h-.3V.3h.3V0h.7v1h-.4v.3h.7V1l.3-.3V.4h.3v.3h.7v-1h-.7v-1.6h.3v-.3h-.3v-.3h-1.6v-1.6h.7V-5h1v-.7h.7v-.7h.3l.3-.3V-8h.3v-.3h.3v-1h-.3v-.7h-.3v.3h-.3v2h-.4v.3h-.3v-.3h-.7v-1h.7v-.7h.3v-1h.7v-.3h.3l.3.3h.3v-1h.3v-1h-.3v.7h-1.3v-.7h.7v-.7h.3v-1h.3v-1.3h-1.3v-.3h-.3v-.7h1v.3h.3v-.3h.3v-.3l.3-.3v-.3h.3v-.7h.3v-.3h.3v-.3h-.3v-3.3h-.3l-.2-.1h-.3v-.3h.3v-.3h.3v-1.6h.3v-.8h-.3v-.3h-.7v-1h.3v-1h-.3v-.3h.3v-.3h.7l-.3-.7h-1l-.3-1H-44v-.3l-.7-.7-.7.3-.7-.3h-1l-.3.7-1.3-.3H-50v.7h-.7z" id="path6" style="fill:#fff"/><path class="st1" d="M-51.3-22.4h.4v-.3h-.7l-.3.3v.4h.6zm391.4 63.7-.3.3h-.7v.3h-.3v-.7l.3-.3zm-.3 3.6h.7v.7h-.7zm-1.3-5.9-.3-.7h.3zm-8.2 10.8h-.3v.3h-.7v-.7c.7 0 0-.7.7-.3l.3.3h.3v.3h-.3zm-.7 2.3-.3.3v.3h-.3l-.3-.3h-.3v-.3c1 .3 0-.7 1-.3zm-1-1.3h-.7v-.3c.7.3 0-.7.7-.3l.3.3h.3v.3zM326 41h-.7v.3l-.3.3v.3h-.7v-.3h.3v-.3h.3v-.7h1zm-1 12.4h-1.6v-1.3h.7v-.3h.3v-1h.3l.3.3h.3zm-2.3-11.1h-.3v.3h-.3v-.3h-.3v-.7h1zM316.8 56h-.7v-.7h.7zm-1-11.8-.3.3h-.3v-.7zm-9.2 11.2h-2.3v-.7h.7V54h-.3v-.3h1v.3h-.3v1h.3v.3h.9zm-3.6-2.6h-.3v.3l-.3.3v.3h-.3V53h.3v-.7h-1.3l-.3-.3h-.3v-.3c.7.3 0-.7.7-.3v.3h.7v.3h1.3zm-5.9-41-.3.3v.3h-1.3v1.3h-1v-.3h-.3v-.7h-.3v.3h-.7v-1.3c.7 0 1.3 0 1.6-.3v-.3l.3-.3h1v.3h.3v.7h.3v-.3zM292.5.9l.3-.7h.7v.7zm.4 13.5-.3.3v.3h-1v-1.3l.3-.3h.7v.3h.3zm3.2 13.8h-.7v1h-.3v-.3h-.3v-.7c1 .6.4-.7 1.3 0zm-6.8-14.5-.3.3h-.4l-.3-.3-.3.3v.3h-.4l-.3-.3h-.3v-.3l.3-.3v-.3c.3 0 1.3.3 1-.3h.7v1h.3zm-3.6-1.6h-.7v-.3h.7zm0 2.6-.3-.7h.3zm-.7-.3h-.7v-.3zm-1.3 0h-.3v.3l-.3.3v.3h-1l-.3-.3-.3.3v.3h-.7l-.3-.7h-.3v-.7h-.3v-.3l.3-.3h.7v1.3h.7l.3-.3.7-.3V14h.3v-.3h.3l.3.3h.3zm17.4 11.1c.7 0 0-.7.7-.3v1.6h-.7zm.6-4.6c.7.3 0-.7.7-.3v.7h.3v.3h-1zm0-5.2.3.3h.3v.7h-.7zm1 7.9h-.7v-.7h.3zm0-11.5h.7v.7l-.3.3h-.3zm1.3-31.5v-1h.7v.3h.7v.3h-.3v.3H304Zm.3 1h-.7v-.3zm6-7.6h.7v.3h-.7zm.6 7.3h.3v-.7h.7v-.3l.3-.3h.3v-.3c.7.3.3-.3 1-.3v.7l-.3.3h-.3v.3h-.7v.7h.3v.3h-.3v-.3h-1v.7h-.3zm-2.3 27.5h.3v.7h-.3zm1.7-.6zm.6 0 .3.3zm.7-10.5.3-.7h2.3v.7c-.3 0-1 0-1.3.3v.3h.3v.7h-.3v.3h-.3l-.7-.3h-.3v.3h-.3v-1.6zm6.5 7.8c.7.3 0-.7.7-.3v.3h.3v.3h-.3v.3h-.7zM326 .9c.7.3 0-.3.7-.3v1h-.7Zm-13.8 41 .3.7h-.3zM344 40h-.7v-.7h-.3v.3h-.7v-.3h-.7v1.3h-.7v-1.3h-.7v.7h-.3v-.3h-.3v-.3l.3-.3v-.7h.3V37h.3c.7-.3.3.7.7.7h.7v-2h-.7V35h-.3v.3h-.7V35h-.3v-.3h.7v-.3l.3-.3v-.3h-2v.7h-1.3v-.3h-.3v.3h-.3v.7h.3l.7.3h.3v.3h.7v-.3h.3v-1h.3c1-.3.3.7.3 1h1v.3h.3v.3l-.3.3v.3h-.3v-.3h-1.3v.7H338v.7h-.7v-.3H336v-.7h.3V36h-.7v1h-.3v-.3h-.3c-.3-.3 0-.7 0-1h-.7v1h-.3v-.3h-.7V36h-.3v.3h-.3v.7h-.7v-.3h-.4V39c-.7 0-.3-1-.3-1.6h-.3V37h-.4v.3h-.3v.7h.3l.3.3h-.7v.3l-.3.3v-.7h-.3V38h-.3v1h-.3c-.7 0-.3-.7-.3-1h-.3v.3c-.7.3-1.6 0-2.3 0V38h-.3v.3h-.3v.7h-.3l-.3-.3h-2v.3l-.3.3V39h-.3v.3l-.3.3v.3h.3v.7h-.7v.7H320V41h-.3v-.3h-.3v.3h-.3v.3h.3v.7h2.3v.7c-.7.3-1.3 0-2 0v.3c-.3.3-1.3 0-1.6.3v.3h-.7v-1h.3l.7.3h.7v-1.6h-.7v.7h-1.3v.7h.3v.7h-1.3v.3h-1v.3h-.3l-.3-.3h-1.9v-.3c.3-.3 1.3 0 1.6-.3v-.7h.3v-.7h.3l.3.3h1v-.3h-.3v-.3l.3-.3v-.7h-.3V40h-1.6v.7h-3v.7h-.6v.7h.3v.7h-1.3v-.3h-.3v.3h-.7v.3h-.7v.3h-.7v-1h-.3v-.3h-1v.3h-.7v-.7h2.6v-.3h.7v-.7h-1.3v.7h-1.3v-.7h-1v-.3h-.3V40h-1v.7h-.7c-.7 0-.3-1-.3-1.3h-.7v-1h-.7l.3-.7h.7v-3h-.3v-1.6h.3v-.7h.3v-.3h-.3v-.3h-.3v-1h-.3v-1h.3v.7h.3v.7h.3v-.3h.3v-1.6h-.3l-.3-.3h-.3v-.3l.7-.3v-4.3h.7v-2.6h.3V20h.3v-.3h-.7v.7h-.3v.3h-.3v-1h.3v-.3l.7-.3v-1.3h.3v-3h.3v-.3h-.7v-.7h.3v-.3h.7v-.3h.3l.3-.3.3.3h.3c0-.3.7 0 1-.3v-.7h-.1v-.3h-.3v-.3c.3-.3 1 0 1.6 0v-.3h.3V11c.3-.3 1.3 0 2 0v-.7h-.3v-.7h1v.3h.3v-.3l.3-.3v-1h.7v-.7h-.3v-.3h.3l.7.3h1v.3h.3v.3h.3v.3h.3v.3h-.3v.3h.3v.3h.3v-.3l.3-.3v-1h-.7v-1h.3l.3.3h.7v-1h2.3v.3l-.3.3-.3.3v.3h.3l.3.3h.3v.3h.3v-.3h.3v-.3l.3-.3v-.3l.3-.3v-.3h.3v-1h-.3v-.3h-.3l-.3-.3h1v-.7h-.3v-.7h1v.7h1v-.7h-.3v-.7h.3v-.3h-.3l-.3-.3h-1V.5h.3c.7-.3.3.3.3.7h.3V.9h.3l.3.3h.7V.5h.3V.2h.3v.7h.3V.2h.3V-2h.3v2h.3v1h-.3v.3h-.3v.3l-.3.3v.3h-.3c-.3.3-1 0-1.3 0v1h.3v.3h.3v-.3h.7v.7h-.7v.7h1.3v-.7h.3l.3-.3v-.3c.3-.3.7 0 1 0v-1h.3V2h.3V.7h.7V-.6h-.7v-1h-.7v-.7h1.3v-1.3h-.7v.7h-.7v-1.6h-.3V-5h.7l-.3-.7h-.3l-.3.3v1h.3v.3h.3c.3.7.3 1.6 0 2.6h-.3c-.7.3-.3-.3-.3-.7h-.3v-2h-.3l-.3-.3h-.3v-.3h-.3V-5h-.3v-.3h-1.3v2h-1.6V-4h.3v-.3h-.3V-5h-.3v-.3h-.3L319-6h.3v.3h-.3v1h.3v.7h-.3v.3l-.3.3v.3h-.7v.7h-1v-1h-.3v.3h-.7v-.3h-.3v.3h-1.3v-.3h.3v-.3l.3-.3v-.3h.3v-.3l.3-.3v.3h.7v-1H315v.3h-1.3v-.3h-.7v.7h-.3v.3l-.3.3v.3h-.7v-.7h-.7v.3l-.3.3-.3-.7h-.3V-5h-.3v.3h-.7v-.7h-.3v-.3h-.2V-6h-.3l-.3-.3h-.4v-1.3h.3v-.3h-.3v-.7h.3v-.3l.3-.3v.3h1.3v-.7h-.3v-.3h.3v.3h-.7v-1.3h2.3v-.3h.3v-.3h.7v-.3h-.3v-.3h-.2c-.7 0-.3-.7-.3-.7h-.3l-.3-.3h-.3v-1.3h.3v-.3h.3l.3.3v.3h.7v-1h-.4v-2h.6v-.7h.3v-.3l.3-.3v-.7h.3l.7.3h.3v-.3h.3v-1.6h-.3c-.7 0-.3-1-.3-1.3h-1.2v-1h-.7v-.7h-.3l-.3-.3c.3-.3 1 0 1.3-.3v-1.3h-.3l-.3-.3h-.4v-.3h-.3v-.3h-.3v-.5h-.7v-.3h.3v-.7h-3.3v-.7h.7v-.3h.3v-.3l.3-.3h.3v-.7h-.3v-.3h-.3l-.3-.7h-.4v-.3h-.3v.7h-.3v.3h-.4l-.3-.3v1.3h-.7v1.3h-.7v1h.3v1h-1v.7h1v.7h-1v.3h.3v.3h1v1.6h-.3v.7h-.3l-.3.3v-.3h-.3v-1h.7v-.7h-.6v.7h-1v3.3h-.3v.3h-.3v.3l-.3.3v.3h-.3v.3h-.7v.7h.3c.7 0 .3.7.3 1h.3v.3h.3c.3.3 0 .7.3 1h.7v-1.6h-.7v-1.6h1.3v.7h.7v1h-.3v.3l-.3.3v2.6h-.7v-.7h-.7v.7h-.7v.7h-.7v.7h-.3v-.3h-.7v.7h-.7v.7h1.3v1.6h-.3c-.7 0-.3-.7-.3-.7h-.7v.7h-.3l-.3 3.3H298v.7h.3l.3.3h.3v.3h.3v.3h.3v.3h.3v.3h-.7v.7h.7v.7h-.7v.3c-.3.3-1 0-1.3 0v-.3h1v-.7h-.3V-4h-1l-1.3.7v.3h.3v1h-.7v1h.3l.3.3-.3.3v.3h-.3v-.3h-1v.3h-.3v.7h-.3V.3h-.3v-.7h-2.3v.7h-2V1h-.7v.7h.3c.7-.3.3.3.3.7h.3v.3h-.3V3l-.3.3v.3h-1v.7h-.7v-.7h-.7v.3l-.3.3v-.3h.1v-.3h.7v-.3l.3-.3v-.3h-.3v-.3h-.3v.3c-.3.3-1 0-1.6 0v-1h-.3V2h-.3v.7h-.7v.7h-.3v-.3h-.3v.3l-.3.3V3h-.3v-.3h-.3V3c-.7.3-1.6 0-2.3 0v-.3h-.3v.7h-.7v.3l-.3.3v.3h.3V5h.3l.3.3h.3l.3.3c0 .3-1 0-1.3.3v.3h.3v.3h-.3v3.6h-.7v.7h.3v.3h.3v.7h.3c.7-.3.3.3.3.7h.3v.3h-.3v1.6h.3v.3h.3v.3l-.3.3v1.3h2v-.3l.3-.3v.7h.3l.3.3h.3l.3.3-.7.3v.3h-.3v.3h1.3v-1h.3V17h.3v-1h1.3v-.7h.3c.7-.3.3.7.3.7h1v.7h.7V16h.3v-.3h.3v-.3h.3v.3h.3v-.3h.7V15h.3l.3.3h.3v.3h-.3v1h.7V16h.3c.7-.3.3.3.7.7h.7v-.3.3h.3l.3.3h-.3v.3h-.7v.3h.3l.3.3h.3l.3.3h1V18h.3v-.3h.3v.7h.7v.7h-.7v-.3h-.3v.7h-.3v.3h-.3l-.3-.3h-.3V19h-.7v.7h.3v.7h-.3v.3h.3c.3 0 .7 0 .7.3h.3v.3h-.3v.7h1.3v.7h-1.6v-1.3h-.7v.3l-.3.3v.3h.3c0 .7.3 1.6 0 2.3h-.3v.3h1v.7h-1v.3l-.3.3v.3h1.3v.3h.3v1.3h-.3c-.7 0-.3-.3-.3-.7h-.7v.3h-.3v.3l-.3.3v3.9h.7v2h-.7v.7h1.3v-1.6h.7v-.7h-.3v-.7h.3v-.3h.3l.3.3h.3v-.3h.3v.7h.3v.3h.3v-.3h.3v.3h.7v1h-1.6v.7h1.3v.7h-1.3v.7h1.3V37h.3l.3.3h.3v.3l-.3.3v.3h-.3v-.7h-.7v.7h-.7v-.7h-.3c-.7 0-.3-1-.3-1.3h-1v.3h-.3v.3h.3v1h-.3v.7h.3v.3h.3v-.7h.3V38h.3l.3.7h.3v.3c.7 0 0 1 .3 1.3h.7v-.7h1v1h-1.6v.6h.3c.3 1 .3 2 0 3h1v.7h-.7v.7h-.3v-.3h-.7V44h-.7v.7h-.7v1h.3v.3h.3l.3.3h.3v.3h.3v.3h.3v.3h.3v1h.3l.3.3h.7v-.3h.3v.7h.7v-.3h.3l.3.3h.7v2.3h-1v-.3h-1v1.3h2.6v.7h-1.6v.3h.3v.3h.7l.3-.3.3.3h1v.7h-1v1h1.3v-.7h1.3v1.9h.7V56h.3l.3.7h.3v.3h1v-.7h.3V56h.3v-.7h.3l.3.3h.3v.7h.7v-.7h.8v-.7h1v-.7h1v.7h.7v.7h-1v.3h.3v.3h.7v-.7h.3c.7-.3.3.3.3.7h.3v-.7h.3v-.3h.3c.3.3 0 .7 0 1h.7v-2h-.7v-.7h2.3v.7h-1v.7h.3v.3h.3v.3h3.3v-.3h1v-.7h-.3v-1h.3v-.3l.3-.3v.3h.7v-.3l.3-.3v.3h.3v.3h.3l.3.3h.3v.7h.3v-.7h.3v-.3h.3v.7h.3v.3h.3v-1h2v.7h.3v.3h.3v-.3h.3v-.7h-.3v-.3l.3-.3v-.7h-.7v-.7h1.6v1.3h1v-.3l.3-.3v-.7h.3v.3h.7v-.7h.7v-.7h1.6v-.3h.3v-.3l.3-.3v.7h.3v.3h.3v-1.6h-1.3v-1h.7v-.7h.3c.7-.3.3.3.3.7h.7v1.3h.3v.3h.3v.7h-.7v1.6h.7v-.7h.7v-.3h.3v-.3h.3v-.3h-.7v-2.3h.3v-.3l.3-.3h.3v1h.3v.3h.3V47h.3v-.3l.3-.3v-.3h.3v-.3h1.3v-.3h-.3v-.7h.3c.7-.3.3.3.3.7h.3v.7h.7v-.3l.3-.3v.7h.3v.3h.3v-2.3h1.3v-.7h-3v-.3h-.3v.3h-.7v-.7h1v-.3l.3-.3v-.7h1V41h1v.3h.3l.3.3h.3V41h-.3v-.7h1V40h-.3z" id="path8" style="fill:#fff"/><path class="st1" d="M305.3 13.4h.4v-.3h-.4zM-53.6-12.5h.3v.7h-.3zm-.3 5.6h-.3v.6h.3zm.3 2.6h.7v-.3l.3-.4h-.3v-.6l-1.3.3v.3l.3.4zM321.7-5h-.6v.4h.6zM21.2 37.7h-.3V37h.7v.7zm0 1.3h-.6v.7h.7v.3l-.3.3V40h-1.4v-.7h.3V39h-.3v-.3l.3-.3h1.7zm-1.9-4.6h.7v.3h.3v.7h-1zm-2.6 0H16v-.7h.7zm-1 1-.3.3v.3h-1.6v-.3h.3v-.3c.3 0 1.3.3 1-.3h.7v.3zm-1.3 8.5h-.7v-1h.3v.3h.3c.1.1.1.7.1.7zm0 4.9h-.7v.7H13v.7h-1v-.3h-.3v-.7h.3v-.3h.7v-1h-.3v-.3h.3v-1h-.3v-2l.3-.3h1v.7H13v2.3h.7c.3.3-.3 1.3.3 1h.3v.5zm-1.7 3H12v-.7h.7zm-1-4h-1.3v-.7h.7v-.3h.3v-.7h.7v1h-.3v.7zM10.1 36l-.3-.3h.3zm2 4.6h.3v.3zM9.8 35h-.7v-.3h-1l-.3-.3h-.3v-.7h.7v.3h1.6v.3h.3v.7Zm0 11.9zM9.1 37h-.7v-.7h.7zm0 13.8-.3-.3h-.3l-.3-.3h-.3v-1h.3l.3.3h.3ZM6.5 35h-.7v-1.3h.7Zm-1.3-.3-.3-.3h-.3v-.7h.7v1zm-.4 12.2-.3.3h-.3v-.7Zm-.6-11.5h-.7V35Zm-.7-1.7.3 1h-.3ZM.9 44.9H.6v.3H.3v-1H1ZM-.4 21.6l-.7-.3h-.3v.3h-.7v-2h.3v-.3l.7-.3v-.3c.7.3 0-.3.7-.3v.3h.3v1l-.3.3v.3h.3v.3h.7v.7h-1zM-1.7 16Zm-1.7 17.1h-.7v.3h-.3v.3h.3v.7h-1v1h.3v.3l-.3.3h-.7c0-.3 0-1-.3-1h-.3v.7l-.3.3v.3H-7l-.3.3H-8v.3h-.7v-.7H-9v-.7l-.3.3h-2.3v-.3h-.3V35h-.3v.3h-.3v.7h-.4v.3l-.3.3h-.7v.3h-.3v.3h-.3V37h-.7c0-.3.3-1-.3-.7l-.3.3h-.4v-.3h-.3V36h.3v-.7h-.6V35h-.3v-.3h-.4v-.3l.3-.3v-.3h.3v-.3h.3v-.7h.7v-.3l.3-.3v-.3h-1.2v-.3h-.3v-.3c.3 0 1.3.3 1.3-.3v-.3h.6v-1.6h-.6v.3h-.4v-.7l.3-.3v-.3h.3l-.3-.3h-.3v-.7h3.3v-.3l.3-.3v-.3h-.3v-.3h.3v-.7h-1.3v-.3h-.3v-.3l.3-.3V24h.3v.3h.7V24h.3v-.3h-.3v-.3l.3-.3v-.3h.7v-4.9h.7v.3h.7v.7h-.7v.7h1.6v.3h.3v.3h1v2.6h.7v.7H-6v.3h.7v.7l-.3.3v.3h-.3c0-.3.3-1-.3-.7h-.3v.3l-.3.3.3.3h.3v.7h1.3v.3h-.3v.7h.7v.3h.3v.3h-1v1h.3v.3h.3v.7h.7v-.7h.5v1.6h-2v1.3h2v.7h.3v1h-.3zm-6.8 12.4zm-4-.3zm-2.3 0-.3.7h-.3v.3h-.7v-1l.3-.3v-.3l.3-.3h.7zm-1.6-11.8-.3-.3h-.4v-.3l.3-.3h1.3v.7h-.3v.3h-.6zm3.6-10.8.3.7h-.3zm.6-.7.3-.3v-.3l.3-.3-.3-.3h-.3V20h.7v2.3h-1zm-.6-15.4h1l.3.3h.3v.3h.3v1l-.3.3v.3h-.3V9h-.3V7.4h-.7v-1h-.3zm8.2 2.3v.3zm-13.1 24.6h-.4v-.3ZM-23 48.2h-1v-.7h.6zm.3 1.6h-.7v-.7h.7zm-1.3.7h-1v-.7h1zm-1.3-17.7h-.7v-.7h.7zm0 .9h-.7v-.3zm-4.6 15.5h-.7v-.3h-.3v.7h-.7v1l-.3.3v.3h-.3v-3h.7l.3.3h.3v-.7h.3c0 .3-.3 1 .3.7h.3c.1 0 .1.7.1.7zm0-7.3-.3-1.3h.3zm3.2-7.5-.3-.7h.3zm6.6-13.1h-.3v.3h-.3v-1.3h.7c-.1 0-.1 1-.1 1zm46.6 17h-1.6v-1.6h-.7v.7h-.3V37h-1.3v-.3h-.3v-.3h.3V36c0-.3.7 0 .7-.3V35h.3v.3h.3V35l.3-.3v.3h1.3v-.7h-.7V33h-2v.3l-.3.3v-.7h-.3v-.3h-.3v-.3h-.3V32h-.7l-.3-.7h-.3v.3H20v.7h-.7v.7h.3l.3.3h-.3v.3l-.3.3v-.3h-.7v.3h.3l.3.3h-1v-2.3h-2v-.3h-.3v.7h-.3v.3h-1.3v.3l-.3.3h-.3v-.3H13v1h-.3v-.3h-.3v.3l-.3.3v-.7h-.3v-.3H6.2v-.7h-.3v-.3h-.3v-.3h-1v-.7h-.7v.3h-.3v.3h-.3v-.3h-.7v.7h-.3l-.3-.3h-.7v-.3H1v-.3H.6V31l.3-.3v-.3h.3l.3.3h.3v-2h.3v-.3l.3-.3v.3h.7v-1.3H1.6v-.3h-.3v-.3H1v-.7H.6v-.7h.3v-.3H.2v-.7h1l.3-.3v-.3h.3v-2.6h-.7v-1h.5v-.7h-.3V19H.6v-.7h.3v-3H.6V15H.3v-.3H0v-.3h-.4v-.7h-.3v.3H-1v.7h-.7v.7H-2V15h-.4v-.7h-.3v-1H-3l-.3-.3h-.3v-.3h-.3v-.3h-.3v-.3h-.7v-.7h.7v-1.3h.3c.7-.3.3.3.3.7h.2v.7h.3c.3.3 0 1 0 1.3h.3l.3.3h.3v-.3h.3v-.3h-.3v-.3h-.7v-.7h.5v-.3h-.3v-2h.3v-.7h-.3v-.3H-3v-.3h-.4v.7h-1.3v-.7H-5v-2h.3l.7.3h.3v.3H-4v.7h.6V5.9h-.3c-.7 0-.3-.7-.3-.7h-1v-.3h-.3v-.3h.3v-.3h-.3v-.7h.3v-.3h.3v.3h.7V2.3h-.7v-.7h-1.6V0h-.3l-.3-.3h-.3v-.3h-.3V-1h-.3v.3h-.7V-1h-.3v-.3h-1.6V-2h-1.8l-.3.3v.3l-.7.4v1h.3l.3.3h.3V0h1v-.3h.3V0h.3v1.3h-.7v.3h-.2v.3h-.3v.3h-.3v.3h-.3v.7h-.7v.3h.3l.3.3h.3v.3h-.2v.3h-.4v.3h-.6V4h-.7v.7h-.6v.7h.7v.7h-1v.7h-.7v1.6h.3l.3.3-.3.3v.3h-.3l-.3.3v.3h-.7v.7h.3v.7h.3v.3h.3v.7h-1v.7h.3v.3l-.3.3v.3h-.2v.3h.3v1h-.3l-.4-.2h-.3v-.3h-.7v.7h-.6v.7h.3c1-.3.3.7.3 1h.3v.3h-.3l.3.3h-.3v.3h-.3v-.3h-.3v.3h-.3v.7h-.4v-.3h-.6v1.3h-.7V22h.7v-.3l.3-.3v.3h.3v.3h-.3v.7h.3l.3.3h.3l.3.3-.3.3v.7h-.2v.3h-.7v2h-.3v.7h-1.3v.3h-.3v.7h-.7v-1.6h.7V26h.6v-2.3h-.7V25h-2v-.3h-.3V26h.7v.7h-.7v.7h-.7v.3h-.3v.3l-.3.3v1.3h.7v-.3h.3v.3h.3c.3.3.3 1.3 0 2h-2.3v.3h-.3v.3h-.3v.3l-.3.3h-.3v1h-.3l.3.3h.3v.3h.3c1-.3.3.7.3 1h.3v.3l-.3.3v.3h.3v.3h.3v.3l-.7.3h-.3v.3h-1v-1.3h-.7v.7h-.6v.3h-.7v1h.3v.7h-.3v.3h-.7v.7h.3v.3h-.3v.7h1v1.6h.3v1h-.6v.3l-.3.3v.3l-.3.3v.3h-.3v1.6h-.7v-.3h-.3v.3h-.3v.7h-.7v.7h-.7v1h1.3v1.3h-.7v1.6h.7v2.3h-.7v.7h1.3v-1.6h2v1h-.3v.7h-.3v.7h.3l.7.3h.3v.3h.3v.3h.3v.3h.3v.7h1v-.3h.3V57h1v.3h.3v.3h.3v.7h.7V57h-.7v-.7h-1.3v-.7h.3v-.3h-.3V55h-.3v-1h.3v.3h.7V54l.3-.3v-.3h.3v-.3h.7v2.3h1.5v-.3h.3v.7h.3v-.3h-.3l-.3-.3h-.3v-.3h-.7v-.7h.3v-.3h.3v-.3c.3-.3 1.3 0 1.6-.3v-.7h.8v-1h-.7v-3h.7v-1h.7v-1h.3v-.7l.3-.3v-.7h-.3l-.3-.3.3-.3h.3v-.7h-.3v-.3h.3V43l.3-.3v.3h.4v.7h-.4v.7h.4v.3l-.3.3v1h.3v.3h.3v1h.3c.7-.3.3.3.3.7h.7v-.7h.3V47l.3-.3V46h1v-.3l.3-.3.3.3h.3v.3h.3v-.3c.3-.3 1 0 1.6 0v.3h.3c.3.3 0 .7 0 1h.3v.3h.7V47h.3v.3h1v-1.6h.3v.3h.3v.7h1v.7h.7v-.7h1.3V46h-3v-.7h.3v-.7h.3v.7h.7v-1h.3V44h.3v.3h.7v-.7h.7v1.3h-.3v.7h.3v.3h2v.7h.7v-2.3h.3V44l.3-.3v.3h1v.7h1.3v.7h.3c.7 0 .3.3.3.7h.3c.7-.3.3.7.3.7h1v.3h1.3v.7H.9v.7h2v-.7h1v1.6h.3v.3h.3v.3h.3v.3h.3c.7-.3.3.3.3.7h.3v.3l-.3.3v.3h-.3v.3h.3v.3h.3c.3.7 0 1.3 0 1.6h.7v-.7h1c.7 0 .3.7.3 1H8c.3-.3 1-.3 1.3 0v.3h.3l.3.3h1v-.3l.3-.3c.3-.3 1.3-.3 1.6-.3v-.7h1v-.7h-.7v.7h-2v-.7h.7v-.3h.3c.3-.3 1 0 1.6-.3v-.7h.7v-.7h-.3v-.3c0-.3 1-.3 1.3-.3v-.7h2.2v-2.6h-.7v-1.3h-1.3v-.7h.3v-.3h-.3l-.3-.3h-.7v-.7h.3v-.7h.3v.3h1.3V41h.3c.7-.3.3.3.7.7h1v-.3h.3V41c.3-.3 1.3-.3 2 0v.3h.3V41l.3-.3v.3h.3v-.3h.3v-.3h.6v-.7h.3v-.3h.3v.3h1.6v-.3l.3-.3v-.3c.3-.3 1.3 0 1.6-.3v-2H26Zm190.6 12.5-.7-.3v-.7h-.3v-.3h.3v.3h.3v-.3h.7v1zm-.3 3.6-.3-.3h-.3v-.3h.7v.6zm1.6-2 .3.7h-.3zm-3.3 1h-.7v-.3zm-2.3-8.5-.3-.7h-.3v-.7h.7v1.4zm0 9.5h-.3v-.3h-.3v-.3h.7v.6zm-1-11.5h-.7v-1.6h.7zm0 11.2-.3-.3h-.3v-.7h.3v.3h.3zm-2.6-22h.7v.3h-.7zm-1 16.7-.3.3v.3h-.3v-1h.7v.4zm-.6-35.1.3-.3v.7zm.6 11.2h1v.7h-.3v.3h-.3v-.3h-.3c-.1-.1-.1-.7-.1-.7zm0-7.2h.7v.3h-.7zm-1.3-6.9zm-.6 33.1h-.7v-1h.3v.3h.3v.7zm-1.3-5.2h-.7V38h.7zm-.7-12.8h-.7c0-.3.3-1.3-.3-1h-.3v-.7c.7.3 0-.7.7-.3v.3h.7v1.7zM203 7.2h.7v.3zm-.7 4.2-.3-.3h.3zm-3.6 9.2h-.3zm0 1.3-.3-.7h.3zm-1 0h-.7v-.3zm-.3 1.7-.3-.3h-.3V23h.7v.6zm-4.3 3.2h-.7v-.7h.3zm-2.9-6.5h-1.6V20h-.3v-.3h1V19h-.3v-.3h.7v.7h.3v.3h.3v.6zm0 8.5h-.7v-.7h.7zm-1.3-7.5-.3.3v.3h-.3v-.3h-.3v-.3zm-2.6-.4h-.7v-.7h.7zm-.7 2.7h-.7v-.7h.3l.4.7v-.3zm-.3 11.1h-1.7V34h.3v-1h.7v.3h-.3v.7h1zm-5.3-1.6-.3.3v.3h-1v-.3l.3-.3zm-1.9 1.9h-.7v-.7h.7zm-4 7.9-.7.3v-.7c.7.3 0-.7.7-.3zm-1-10.1-.3-.3h.3zm-.3-23-.3-.3h-.3v-.3h-.3v-.3h-.3v-.7h.7v.3h.3v.3h.3v1zm-.3 25.2h-.7v-.3zm-1 3.3h-.7V38Zm0 2.7-.3-.3h.3zm-1-6.6v-.7h-.3v-.3h.3v-1.3h.7v2.3zm0-4.3.3.3h.3v.3h-.7v-.6zm0-23.6.3.3h.3v.3h-.3v.3h-.3zm-1 26.6h-.3v.3h-.3c0-.3.3-1-.7-.7h-.3v.3h-.3v-.3h-.3v-1.6h.7l.3.3h.3v.3h.3v.3h.3v.3h.3zm-.6 2.6h-.7v-1h.7zm-1-1-.3.7-.3-.3h-.3v-1h.7zm-1-6.5v-.7h.3v-.3h.3v-2h.3v.3h.3v.7h.3v1h-.7v.3l-.3.3v.3h-.5zm-1-4.6v-.7h-1.3v-.7h1.3c.3-.7 0-1.3 0-1.6h-.7V20h.7v-.7h.7v.3h-.3v.3h.3v.3h1v3.3h.3v-.7h.7v.3h.3v.7h-.3v.7h-1v.3h-.3l-.3-.3h-.4v-.3h.3v-.7h-1zm.7 2.6h-.3v.3h-.3v-.3h-1.4v-1.6c.7.3.3-.7.7-.3v1.3h1.3zm-.7-22.6h.3v.3zm.7-3h.7v.7h-.3Zm1.3 21.3zm.3-11.1h.3v.3zm-4.9 2.3h-.7v-1h.3v-1h.3v2zm-.7 11.8h-.7v-1h.7zM162 16l-.3.3h-.3v-1h.3v-.7h.3zm-.7 14.1h-1v-.7h.3v-.7c.7.3 0-.7.7-.3zm-1-4.2h.7v.7h-.7zm-.6-9.5h-.7v-.7h.3v.3h.3v.4zm-1.3 17.3-.7.3v.3h-.3V34h-.3v-.3h-.3V33h.7l.3.3h.3zm-1.3 2zm-.7-21-.3.3v.3h-.3v-.7h.6zm-.7 22.3Zm-3.9 14.8-.3.3h-.3l-.7-.3h-.3v-.3h-.3v-1h.3v.3h.3v-.3c.7.3 0-.7 1-.3v1.6zm-2-27.2zm-.6 2.2h-.7v-.7h.3zm-.7 6.9h-1v-.3h-.3v-1h.7v1zm-1.9 6.6-.3-.7h.3zm-.7 3.9h-.3v.7h.3v1h-.3v1h-.3c0-.3.3-1.3-.3-1.3v.7h-1V46l.3-.3v.3l.7-.3v-.3h.3v-1.6h.3zm-1 4.6-.7.3h-.6v.3h-.3v-.3l.3-.3v-.3l.3-.3zm-.6 3h-.7v-.3zm73.4-.3h.7v-1h-.3v-.7h-.3v-.7h-.3l-.3-.3h-.3v-.3h.3v-.3h-.7v.7h-1v-.7h.7v-.3h-.3v-.3h-.7v-.3h-.7v-1.6h.7V45h-.7v.3h-.3V45h-.3c-.3-.3 0-1.3-.3-2h-1v-.3h-.3v-1h.3v-.3h.7v-.7h-.3v-.3h.3v-1h-.7V39h-.3v-.3l.3-.3v-.7h-2v-.3h-.7V37h-.3v-1h1.6v.7h.7V36h-.3v-.3h1V35h-.3l-.3-.3h-.3v-.3h.3v-.7h-.7v-2h-.3v.3h-.7v-.3h-.3v-.3h-.3l-.3-.3h-.3v-.3c.7-.3 1.6 0 2.3 0v-.7h-1.3v.3h-.3v-.3h-.3v-1h.3v-.7h-.7v-.3h-.5v-.3c.3-.3.7 0 1 0v-.7h-.3v-.7h.3c.3 0 .3.3.3.3h.3v.3h-.3v.7h1.3v-3.3h-1.6v-.3h-.3v-.3h.3v-1h.3v-2.3h.7V20h.7v-.7h-.7v-3h-.3l-.3-.3h-.3v-.3h-.7v.7h-.4c-.3-.3 0-1 0-1.6h.3v-.7h.3v-1h-.6v-.7h.3v-.7h-1v-.3h.3v-.3h.3v-.3h-.3c-.3 0-.7-.3-.3-.3h-.3v-.3h-.7v-.3h-1v-.7h.3l.7.3v-1h.3v-1h-.3v.7c-.7 0 0-1-.3-1.3h-.3v1h-.3v.3h-.4v.3c-.3.3-1 .3-1.3 0v-.3h.3V6.9h.3v-.3l.7-.3h.3V6h-1.6v1h-.3v-.3h-.4V7l-.3.3-.3.3v-.3h-.3V8h-.3v.7h.3V9l-.3.3v.7h.3v.3h-.3v.3l-.3.3v-.3h-.7v-.3h-1v-1h-.3v.3c-.3.3-1 0-1.6 0v1.3h.3v.3h-.3v.3h-.3v.7h.3v.3l-1 .3v.7h-.3l-.3-.3h-.3v.3h-.3v.7h-.3v-.3h-.3v-.7h-.3c-.3.3-1 0-1.3 0v1h-.3v.3l-.3.3v.7h-.3l-.3-.3h-2v.7h-.7v1.6h-.7v-.7h-1v.3l-.3.3V17h-.6v.7h-.3v.3h-.3v-.3h-.7v.7h-.3v.3h-.4v.3l-.7.3v.3h.3l.3.3h.3v.3h-.2v.3h-.7v-.3h-.3V20h-.3v.7h-.3v.3h-.4v1h-.3v.3h-.3V22h-1.6v.3h-.3v.7h.3v.3h.3l.3.3h-.3v.3l-.3.3v-.3h-.7v1h-.7v-.3h-1.6v.7h.3v.3h.3l.3.3h-.3v1.3h-1v-.3h-.3c-.3 0-.3 0-.3-.3h-.3v-.3h1v-.7h-.3v-.7h-.3v.3c-.3.3-1 0-1.6 0v-.3h-.3v.3h-.3v.7-.3h-.3v-.3h-.3V25h-.3v-.3h.3V24h-.3l-.3-.3h-.3v-.3h.3v-.7h.3v-.3h.3v-.7h-.3V21h.3v-1.3h-.3v-.3h.3V19h.7v-.3h-.3l-.3-.3h-.7v-.7h.3V15h-.3v-.7h-.3V14h.3v-.3h.3c.3.3 0 .7 0 1h.3v-.3l.3-.3v-.3h-.3c-.3-.7 0-1.3 0-2h-.3v.3h-.3v-1h.3v-.3h-.3v-.3h-.3v-.3h.3v-1h-.7v-1h-.3v-1h-.3v-.3h-.3v-.7h-.3v-.3h-.3v-.3h-.3v-.7h.3v.3h.3v.3h.3v-1h-.3c-.7.3-.3-.3-.3-.7h-.7v-.7h-.3v.3h-.3v-.3h-.3c-.3-.3 0-1.3 0-1.6h-.3v.3h-.3v1h-.7v.3l-.7.3v.3h-.7v-.3h.3v-.3l.7-.3v-.3h.3v-.3l.3-.3v-.3h-.7V.9h1V.6h-1V.3h-.3v-.7h.3V-1h-.3l-.3-.3h-.3l-.3-.3c-.7 0 0 .7-.7.3v.3l-.3.3v.3h-.7v.3l-.3-1.3v1h-.3v.3h-.4v.7h-.6v1h-.4v.3h-.3v.3h.3v.7h-.7v.3h-.3v.3h.3v.3h-.3l-.7 1.3v2.3h-.3v.3h-.3V9h-.3v.7h-.3v.3h.3v.3h.3l.3.3h-.3v.3h-.3v-.3h-1v.7h.3v.3l-.3.3v.7h.3v.3h-1v.3h.3v.7h-1v2.2h-1v-1h.3V15l.3-.3v-1.3h-.3c-.7 0-.3-.7-.3-1h-.3v1h-.7v-1h.3v-.7h.3V11h-.3v-.3h.7v-.3l.3-.3v-.3h-.3v-.3h-.7v-.3h.3v-.7h-.3v-.3h-.3v-.3h-.3v-.3h-.3l-.7-.7v-1h-.7v-.3h-.3l-.3-.3h-2v.3h-.3v.7h-.3v.3h-.7v1h-.3v.3l-.3.3v.3h.3v1h-.3v.3l-1.3.3v.7h.3v.3h-.3v.7h.3l.3.3h.3v.3l-.3.3v1h.3v.7h-.7v.3h-.3v.7h.3v1h-1v.3h.3v.3h.7v.7h-.3v.3h.3v.7h-.3v1h.7v-.3h.3V19l.3-.3c.3.7.3 1.3 0 2h-.3v.3h-.3v.3h-.3v.3l-.3.3v.3h.3v.7h-.7v.3h-.3v.3l-.3.3-.3 3.3h-.7v1.6h-.7v1h.3c1 0 .3 1 .3 1.6h.7v.7h-2v.7h.7v.7h-.5v.7h1v.7h-1v.7h.3v.3h-.3v.3c0 .3-.7 0-.7.3v1h1v.7h-.3l-.3.3v.3h.3v.3l-.3.3v.7h.3v.3h.7v1h-.7v.3h-.3v.3h.3v1h-.3v.3h-.3v.3l-.3.3v.3h-.3v1h-.3v3.3h-.5v1h-.3v.3h-.7v.7h-.3l.3 1h.3v1h.3v.3h.3l.3.7h.3l.3.3h.3v.3h.3l.3.3h-.3v1.3h.3l.7.3h-.4v.3h.3l.7.3h1v.3h.3v.3h.7V57c0-.3.7 0 1 0v-.7h-.3V56l.3-.3v-.3h.7v-1h1.6v-1.3h.7v-2.3h.3c0-.3.3-.3.7-.3v-.3h.3v-.7h-.3v-.3h-1.3v-.7h.7v-.3h.3v-.3l.3-.3c.3 0 .7 0 .7.3l.3-3h1.3v-.7h.7v-1.6h-.3v-1h1.3v-2h-.7v.3l-.3.3V40h-.3v-.3c.3-.3 1 0 1.6 0v-.3h.3V39l.3-.3v-.3h.3V38c.7-.3 0-1.3.3-2h.7l.3-.3v-.3h-.7V35h-.3v-.3c.3-.3 1 0 1.3 0v-.3h.3l.3-.3v-2.6h.7v-.7h.7v-3.3h.3v-.3h.3v-.3h2.3v1.6h1v.7h-.3v.3h-.4v-.3h-.3v.7h.7v.7h-.7v.7h.7v.7h-.4v1h.3v.3h.3V33h.3v-.7h.3v.3h.3v1h-.5v.3l-.3.3v1.3h.3v1.6h-.3v.7h.3l.3.3h.3v.7h-.3v.7h.3v.7h-.6v.3l-.3.3v.3h.3v.3h.3V41l.3-.3c.7-.3.3.7.3.7h1.3v2h-.3v.7h.3v.3h.3v.3h.3l.3.3h.3v.3h.3c.7-.3.3.3.3.7h1.3v.3h.3l.3.3h1.3l.3-.3.3-.3h.3v-.7h.3V45h.3v-.3l.3-.3v-1h.3v.3h.7l.3-.3v-.3h-.3v-.7h.3v-.7h-.3l-.3-.3h.3V41l.3-.3v-1h3V39h-.7v-.3h-.3v-.3l.3-.3v-.7h-.7v-.7h1.3v.3h.3v-.7h.3V36l.3-.3v1h.7v-1.3h.3c1 0 .3 1 .7 1.3h.3v-.3h.3v-.7h.3v.3h.7v-.7h.7v-3.6h.3c.7 0 .3.7.3.7h.3v.3h.3l.3.7h.3v-.3l.3-.3v.3h.3v-.7h.3v-.7h.2v-.3h-.3v-.3l.3-.3v-.7h-.7v-.7h.3l.3.3h.3v.3h2v-.7h-2v-.7h3v.3h.3v-.7h.3v-.3l.3-.3v.3h.7v-.7h-.7v-.7h.6v-.3l.7-.3v-1.3h-.3v-1h.7v-.3l.3-.3v-.3h.3l.3.3h.3v-.3h.3v-.3l.3-.3c.3.3 0 1 0 1.6h.3v.3h.3v1h1.3v-.7h.7V24h-.3v-.7h.7V23l.3-.3v-.3.3h.7V22h-.7v-.7h1v.3h.3v-.3l.3-.3.3.3h1v1h-.7v.3h-.3l-.3.3v1.3h.7v.7h.3v.3h.3v.3h.3v-.7h.3l.3-.3.3.3h.3v.3h-.3v.7h.7v1h-.3v1h.3v.3h-.3v.7c.7 0 .3 1 .3 1.3h.3v.3c0 .3-.3 0-.7.3h-.3v.3l-.3.3h-.3v1h.3l.7.3h.3v.3h-.3v3.3h.7v3.9h.3c.7-.3.3.3.3.7h.7v1h-1.3v.7h.3v.3h1v2.6h.3l.3.3-.3.3v.3h-.3v.3h.3v.3h.3l.7.3h.3v.3h.3v.7h-.3v1.3h.3v.3h.3v-.3h.3v.3h.3v1h-.2v1h2.6v.3h.3v.3h1v1.3h.3c.7 0 .3.7.3 1h1v.3h.3v.7h.3V55h.3c.7-.3 1.6 0 2.6 0v.3h.3v-.7h.3v-.3h1v.3h.7v-1.3h.7v-2h-1.3zm-43.6-40.4v-.3zm0 0h.3zm104 28.9h-.7v-.3h-1.3V39h.3v-.7h.3v.3h.7v.3h.3v.3h.3zm-2-2.7h.7v.3zm-.9 1.7-.3-.3h.3zm-1 .6h-1V39h.7zm-2.7-1.3h-1V38Zm-1.3 2.7h-.6v-.3zm0 1.9h-.6v-.3zm-.6.7h-.7v.3l-.3.3v.3h-.3v-.3h-.3v-.3h-.4v-.3zm0 2.3h.7v.7h-.7zm1 4.2v1h-.7v-.7c.7.1 0-.6.7-.3m0-2.9h.7v.3l-.3.3v.3h-.4zm0-1.3h.3v.3zm.6 3.9h.7v.7h-.7zm-3.9-14.4h-1v.3l-.7.3h-.3v-.3l-.3.3h-.3l-.3-.3h-.3v-1.6h1.6v.3h.3v.3h1v.7zm-6.6 13.8h-1.3v-.3h-.3v-.3h.3v-.3h-.3l-.3-.7h-.3c0-.3.3-1-.7-.7v-1h.3v.3h.3c0 .3-.3 1 .7.7h.3l.3.3h.3v.3h.3v.7h.7v1zm-.6-2.7zm-3.6-28.8h-1v-.3h-.3V17c.3 0 .3-.3.3-.3h.7v.3h.3zm-1 6.9h-1.3v-1h1zm-.7 11.4h-1v-.3h-.3l-.3-.3h-.3V35h-.3v-.3h-1.3v.3h.3v.3h.7v.3l-.3.3-.7.3v.3h.3l.3.3h.3v.7h-.3v-.3h-1V37h-.3v-.7h-.3V36h-.3v-.3l.3-.3h.3v.3h.7V35h-.7v-.7h-1v.3h-.3v.3h-.7v.7h.7v.3h-.7l-.3-.3h-.3v.7h-.4v.3h-.3c0-.3.3-1.3-.7-1l-.3.3h-1v-.7h-1V35h-.3v.7l-.3.3h-.7v.7l-.3.3v.3h-.7V37h.3v-1h-.7v-.3h-.3V35l-.3.3v.3h-1.3v.3l-.3.3V36h-.3v1h-.3l-.3-.3h-.3V36l.3-.3v-.3h.3v-.7h.3v-.3h-.3v-1l.3-.3v-.3h.3v.3l.3-.3v-.3h.3v.3h.3v-.3l.3-.3v-.3h.3v-.3h.3v-.7h-.3v-1c.3 0 1 0 1-.3v-.3h-.3v-.7l.3-.3V28h.3v-2h-.3v-.7h1.6v-.7h-.3v-.3h.7V24h.3v-1h-.7c0-.3.3-1.3-.3-1.3h-.3v-2h.3l.3.3h.3v.3h.3v.3h.3v-.3l.3-.3v-.3h-.1V19h.7v-.7h2v1.3h-.3v.3h.3v.3h2V20h.3v.3h.3v.7h-.7v-.3l-.3.3v.3h-.3v1.6h.7v.3h.3v.3h.3v.3h-.3v.3h-.3v.7h.7v-.3h.7v1.6h-.3l.3.3h.3v.3h-.3v.7h.3l.3.3h.3v.3h-.7v.3l-.7.3.3.3h.3v.7h-.3l.3.3h.3l.3.3h.3v1h-.3v.7h.3l.3.3.3-.3v-.3h1.3c.3.3-.3 1 .3.7h.3v1.3h.7zm-1.6 5.9zm-1.3-3.9h-.3v-.3zm-9.6-14.1.3.3h.3v.7h-.7v-1zm1-4.9zm1.7-6.9h.7c0 .3-.3 1 .3.7h.3v-.7h.7v.3h.3v.3h.3v1.6h-2v-.7h.3l-.7-.3h-.3V13h-.3v-1h.4zm3.6-4.9zm1-.4h.7v.7h-.7zm.6-1.3h.7v.3h-.3v.7h-.3v-1zm.7-3.3.3.7h-.3zm.3 1c.7.3 0-.7.7-.3v2h-.3v-.3h-.3V3.2Zm3.9 12.5c.7.3 0-.7.7-.3v.7h-.7zm-17.7 28.5-.3.3h-.3v-1h.3zm-1.3-21.3-.3-.7h.3zm-.6 23-.3.3-.3.3h-.7v.3l-.7.3v.3h-1v-.3h.3v-.7h-.3v-.7h.3l.3.3h.3l.3.3.3-.3v-.3h.7V45h1v.7h-.2zm-1 2.3h-.7v-.3h.7zm-.7-14.1v.7h-.3v-.7zm-1.6-5h-.6v-.3h.7v-1.3h1v.3h.3v.3h-.3v1zm-.3 20.4h-.3v.3h-.3v-.7zm-1-1h.7v.3zm3.6-5.2.3.3h-.3zm-4 11.8-.7.3v-.7h.3zm0 2.3h-1v.3h-.3V57l.3-.3h1zm-2.3-20.1h-.6V37c.7.3 0-.7.7-.3v.6zm-2.3 12.8h-.7v1.3l-.3.3v.3h-.3v-1h-.3v-.7l.3-.3v-.3h-.3l-.3-.3h-.4l-.3-.3h-.3v-.7h.3v-.3l.3-.3h.7v1l-.3.3h1.6v1zm0 2.7h-.7v-.7h.7zm-1.6-5.9h.7v.3zm1 .3h.3v.7h-.3zM280.7 37h-1.3v.3h-.3V36h.7-.3l-.3-.3h-.3v.7h-.7v1h-.3V37h-.3l-.3-.7H276v-.7h.3v-.3h-.3c-.3 0-.3 0-.3-.3h-.3l-.3-.3c.7-.3 1.3 0 2.3 0v-2h-.6v-.3h-.3v-.7h-.3v.3h-.7v-.3h-.7v.7h.3v.3h.3v.3h-.3l-.3.3-.3-.3h-.3c-.7 0-.3-1-.7-1.3v.3h-1.3v-.3h-.3v.7h-.6v.3h-.7v.7h-1v-1h-2v.7h.3v.3c-.3.3-1 0-1.3 0v-1h.3v-.3h-1.3v.3c-.3.3-1.3 0-2 0v-1h-.3l-.3-.3h-.3v.3h-.3v.3l-.3.3h-.3v.3h.3l.3.3h.3v.3c-.3.3-1 0-1.6 0v-.3h-.3v-.7h.3v-.7h-.3c-.7.3-.3-.3-.3-.7h-3.3v-.3h-.3v-.3h.3v-.7h-.7v-.7h.7v-1h.7v-.7h.3v.3h.7v-1h-.3c-.3-.3-.3-1-.3-1.3h-.3v-.3l.7-.3h.3v-.3h-.3v-.3h-.3v.3l-.3.3v-.3h-.3v.3l-.3.3v.7h.3v.3c0 .3-.7 0-.7.3v-3h.3v-.7h.7l.3-.3v-.3h-.3l-.7-.3h-.3v-.3h-1v-.7h.7v-3.3h-.3c-1 0-.3-1-.3-1.3h-.7v-.7h-.3c-.7.3-.3-.3-.3-.7h-.3v-.7h-.3v-.7h.3v-.7h-.3v-.3h-.3l-.3-.3h.3V9.2h-.7v-2h-.7v1.6h-.7V7.2h.3v-.3h.3v-1h.7v-.7h-1.3v-.7h1.3v-.7h-1.3v-.7h-.7v-1h.3v-.7h-.7v-.3h-.3V.8h-.3v-1h.7v-.3h-.3v.3h-.3v-.3h-1v.3h-.7v-.3h-.3v-.3h.3v-.7h-.7v.5h-.7v-.3h-1l-.3.3v.3l-.3.3v.3c-.3.3-1 0-1.6 0v.3l-.3.3v.3h-.3v.7h-.3v1.3h-.3v.3l-.3.3v.3h.7v-.3h.3v.7h-.7v.3h-.3v.3h.3V5h.3l.3.3c-.3.3-1 0-1.3 0V6h.3v.3h-.3v.3l-.7.3v.7h1v.3h-.3v.3h-.7v.3h.3v.7h-1v.3l-.3.3v.3h-.3v1.6h-.7v2h-.7v.7h1.3v.7h-1.3v1h.3v.3h.3l.3.3h-.3v.3l-.3.3v.3h.7v-.3h.7v.7h-.3v.3l-.3.3v-.3h-2V18h-.7v.7h.3v1h-.3v-.3h-.7v1.3h.7v-.3h.3v.3h.3v.3l-.7.3v.3h-.3c-.3.3-1.3 0-1.6 0v.7h.3l.3.3h-.3v.3h-.3v.3h.3v.3h.3l.3.3h-1v2.3h.3v.3h-.3v.3h-1V26h-.3v-.3h-.3v.3l-.7.3v.7h-.7v-.3h-.3v.3h-.3c0 .3-.3 0-.7.3v.7h1.3v1.6h-.3c-.7.3-.3-.3-.3-.7h-1v1h-.3v.3l-.7.3v.3h.3l.3.3h.3v-.3l.3-.3.3.3h.3v.3h-.3v-2.3l-.3.3v-.3h-.7v.7h-2.3v.7h.3c1 0 .3 1 .3 1.3h.7v-1.3h.3c.7 0 .3 1 .3 1.3h.7v-.3h.3v1h-2.3v-.3h-.3v.3h-.3v.3h-.3l-.3.3v1.3h.3v.3h1.6v.7h-1.6v-.3h-.3v.7l-.3.3-.3.3h-.3v.3h.3v.7h-1v.6h.7V37h1.3v.7h.3v.3h-.3v.3c-.3.3-1 0-1.3 0v.3h.3v.3h.3l.3.3h.3v.3h.3v.7h-.3v.3c0 .3-.7 0-1 .3v1.3h.7v.7h-.4v.7h-.3v.7H225v-1h-.7v.3h-.3v.3h.3v.3l-.3.3v.7h-.7v.3h.3v.7h-.7v2.3h-.3v.3h.3v.3h.3l.7.3-.3.3v.3h-.3v.3h.3v.3h.3v1h.3v-.3h.3c.7-.3.3.3.3.7h.3v.7h.3v.3h1v.7h1v.3h.3c.3.7 0 1.3.3 2.3h.3l.7.3v.3h.3v.7h1.6v-.7h.7v-2h-.3l-.3-.3.3-.3v-.3h.3v-1h.7v-1.6h1.3v-1h-.3V50h-1v1.3H231V51h-.3v-1.6h1v-.7h.7V48h.7v-.7h.3v.3h.3v.3h1v-1h.3v-.3l.7-.3V46h-.7v-.3h-.3v-.3c.3-.3 1 0 1.3 0v-.7h.3l.3.3h.6c.3 0 .7.3.3.3h.3l.3.3h1.6v-.7h-.3v-.3h-.3v.3h-.7v-.7h2.6v.7h-.3v.3h.3v.3h1v.7h.7v-1h.3v.3h1v-.7h-.7v-.3h-.3v-.3c0-.3 1 0 1.3-.3v-.7h.3c.7-.3.3.3.3.7h2v.7h-.3v.3h.3v.3h4.3v-1.3h.3c.7 0 .3 1 .3 1.3h.7v-.7h1.3v-.7h-1.3v-.7h-1.3v-.7h-2v-.7h-.7v1h.3l.3.3c0 .3-.3 0-.7.3v.7h.7v.7h-1.3v-1.3h-.3v-.3h.1v-.3h-.7v-.3l.3-.3v-.7h.3l.3.3h.7v-.3h.3v-.3l.3-.3v-.7h.3c.3 0 .3.3.3.3h.3v.3h.3v.3h.3l.3-.3v-.3c.3-.3 1 0 1.3 0v.7h-.3v1h1v-.3l.3-.3.7.3-.3.3v.3l-.3.3v.3h.3v.3h.3v-.3c.3-.3 1 0 1.6 0v.3h.3v.3h.3v-.3h.7V45h.7v1.6h.3l.3.3h.3v1.6h-.3v.7h.3c.7-.3.3.3.3.7h.3v.3h.3v-.7h.3v-.3h.3v.3h.7v-.3h.3v.3h.3v.3h-.3v.7h.3c.7-.3.3.7.7.7h1v.3h-.3v.3h-.3l-.3-.3h-.3v.7h-.3v.7h.3l.3.3h.3v.7h.3v.7h.3c1 0 .3 1 .3 1.3h1.3v-.7h.7v-.7h-.7v-.7h2.6v2h1.6v-.3h-.1v-1h.3v.7h.3v-1h.3v-.3h.7v-.3h-.3v-.3h-.3V53h1v-1.6h.7v-1.3h.3v.3h.3v.7h.3v-.3l.3-.3v-.7h-.3v-.3c0-.3.7 0 1-.3v-.7h-1.3v-.3h-.7v.7h-.6v-.7h.3v-.3l.3-.3v-.3h.3l.3.3h.3v-.7h.3v-.3l.3-.3v.7h.3l.3.3h.3V47h.3v-.3h-.3V46h.7v-1h-.7v.3h-.3V45h-.3v-.7h-.3v.7h-.3v.3h-.3l-.3-.3h-.3v-.3l.3-.3v-.7h-.3l-.3-.3h-1.6v-.7h.3l.3.3h1v-.3h-.3v-.3h-.3v-.7h.3-.3V41h.3c1-.3.3.7.3 1h.3v-.3h.7v-.3l.3-.3v-.3h.3v-.3l.3-.3v-.3h1v.7h1.3v-.7h-.3l-.3-.3h.3v.4l.3-.3.3.3h.3v-.3l.3-.3.7.3h.3v-.3l.3-.3v.3h.3V39l.3-.3V38h.3l.3.3h.3v-.7h.7v-.3h.3V37h-1v-.7h1V36h-.3zm31.9-39h-.4v.3h.4zM80.3 42.6l-.3.3v.3h-1v-.7l.3-.3h1zm-.7-2.6Zm-1.3 10.1-.3.3v.3h-.3v-1h.7v.4zM76 51.5h-.3v.3h-.3v-.3h-.3v-.3h1c-.1-.1-.1.3-.1.3Zm-5.9 5.2h-1.6v-1h.3V55h1v.3h-.7v.7h1zm-2.6.3h-.7v.3h-2.3v.3h-1v-1c.3 0 1.3.3 1.3-.3V56h.7v-.3h.3V55h-.3v-.3h.7c0 .3-.3 1.3.3 1.3h.3zM59 48.8h-.7v-1c.7.3 0-.7.7-.3zm-1.3.7h-.3v.3h-2.3v-1h.7v.3c.7 0 1.3.3 1.6 0h.3v.4h.3Zm-.4 9.2-.3.3h-.3v-.3h-1v-.3l.3-.3h.7l.3.3h.3zm-5.5-9.9zm-1 8.2zm-1.3.4-.3-.3h-.3v-.3c.7.3 0-.7.7-.3-.1-.1-.1.9-.1.9zm-.7-2.7h-.7V54h1zm-2.3-.3-.3.3h-1.6v-1c.7.3 0-.7.7-.3l.3.3h.3v-.3h.7v1zm-7.9-4.3h-1.3v-1h1.3zm25.9-20.6h-.7zm-.6 9.2h-.7l-.3-.3h-.3V38h1.3zm-1.7-10.2-.3-.3h-.3v-.3h.7v.6zm-.9 10.2H61v.3h-.4v-.7h-.3v-1h-2v-1h.7v.3h2.3zM57.7 37h-.3v.3h-.7v-.7c.7.3 0-.7.7-.3zm-4.3-13.4c-.3 0-.7-.3-.7.3v.3H52v-.7c1 .3.3-.7 1.3-.3v.4zm-5.3-.4h-.7v.3h-.3v-.7c.7.3 0-.7 1-.3zm-4.9 8.9h-.6v-.3Zm-1.6-11.8h-.3v.3H41l-.3-.3V20h1v.3zm-1.3-.7Zm-8.2.4h-1.3v-.7h1.3zm-.4 6.5H31v-.7h.7zm12.2-11.1Zm4.9-2h.7v.7h-.7zm3.6-.7h2v.7h-1.6ZM54 3.6Zm6.3 7.2zm0-7.9h1v.3zm0-1.3h1.6v.7h-1.6zm3.6 8.2.3.3h-.3zm17 31.8c-.7 0-.3-1-.3-1.3h-.3v-.7H80c-.3-.7 0-1.6 0-2.6h-.4c-.7 0-.3-.3-.3-.7H79v.3h-.7v-.3h-.7v.7h-.3v.3H77V37h-1v-.3h-.3V36h-.3v-.3h-.7V35h-.3v-.3h.3v-.3h2v-.3h-.3l-.3-.3h-.3v-.3h-.3v-.3h-.6v.3c-.3.3-1.3 0-2 0v-1.3h-1v-.3h-1v-.3h-.3v-.3h-.3V31l-.3-.3h-1.3V30h.3v-.3h-.3v-.3h-.3v.3h-.7V29h-.3c-.7 0-.3-.7-.3-.7h-1.6v.3h-.3v.3l-.7.3v.7h-.9v.3h-.3v-.3H63v-.7h.3v-.3H63v-.3h-.7v-.7h-1.7v-.3h-.7v-.3h-1v.3h.3l.3.3h.3v.3h.3v.7h-.3l-.3-.3h-.3l-.3-.3h-.7V28h-.3l-.3-.3h-.3l-.3-1v.3h-1v-1h1v-.6h-.3v-.3h-.3v-.3h-.3l-.3-.3h-1v-.3h-.3v-.3h-.3v-.3h-.3v-.3h-1.6v.3l-.3-.3V23h-.3v-.7h-.3l-.7.3v.7h-2V22H48l-.3.3V22h-.3v-.7.3h-.3c-.7.3-.3-.3-.3-.7h-1.3v.7h-1v-.3h-.3V21h-.6l-.3-1H43v-.3h-1.4V19h-.7v-.7h1v.3h.7v-.3h-.3v-.7h.7v-.3l.3-.3v-.3H43V16h.3v-.3h.3l.7.3-.3.3v.3h1v.7h.7v-.7h1.6v-.3l.3-.3v-.3c-.7-.3-.3-1-.3-1.6h-.7v-.3h.3v-.3h1.3v2h1.6V15h.3v-.3l.3-.3h.3v-.3l.7-.3v-.3h-.3v-.7h.3v.3h.3v1h.7v-.3h.3v.3h.3v.7h.7v-.3l.3-.3v-.7h.3v.7h.3v.3h.3v-.3l.3-.3c.3 0 .7.3.3.3h.3v-.3l.3-.3v-.7h-.3v-.3c0-.3.3 0 .7-.3V12h.3v-.7h.3v.3h.3v.3h-.3v.3h-.3v.7h.7v-.3h.3v.3h.8v-.7h-.3l.3 1h-.3v-1h3.3v.3h.3v.3h2.3v-.7h-.3v-1h.3v-.3h.3v-.3h1v.3h1v-.3l.3-.3v-.3h-1l-.3-.3h1v-.3h.3V9l.3-.3V9h.3v.3H69v-.7h1.3v-.7h.3v-.3h.3v-.3l.3-.3h.3v-.7h-.3V6h.7V5h-.3v-.3h-.3v-.3H71v-3h-.3l-.3-.3h-.3V.5h-.3V.2h-.3l-.3-.3h-1l-.3.3v.3h-.7V.2h.3v.3h-.3l-.7-.3h-.7v.7h-.3l-.3-.3h-.3V.3h-.7v1h-.6V1h-1.3V.3H60V1h-.7v.7h.3c.7-.3.3.3.3.7h.3l.3.3c-.3.3-1.3 0-1.6.3v.3h-.3V3h-.3v-.3H57V3l-.3.3c-.3-.3 0-.7 0-1.3h-1.3v.7h-2V3c.7.3.3 1.3.3 2H53V3.4h-.7v1.3h-1V5H51v.3h.3v.3H51c-.3.3-1.3.3-1.6 0v-.7h1.3V3.3h-.3V3h-.3v.3h-.3v.3h.3v.7h-3.6V5h-.7v1.6h-.3v.3h-.3v-.3l-1.3.3v.3h-.3v.3l-.3.3c-.3-.3 0-1.3 0-1.6H42v.7h-.7v.7h.3v.3l-.3.3v.3H41v-.3h-.4v-.7h-.3v.3h-.7v-1h-.7v.7h-.7v.7h.4v.3h.3l.3.3h.4v1h-1v.3h-.3l-1-.3.3-.3v-.7h-1v2h.3v.3h-.3l-.3-.3H36l-.3-.3h-.3v.3l-.3.3v-.3h-.3V9.2h-.7v2.6h-2.3v3.9h.7V15h-.3v-.3h.3c.7-.3.3.7.3.7h.3l.3.3h.3v.3h.7v1h-.3v.7h-.7V17h-.3v.3h-1V17h-.3v1.3h-1.6v.3h-.3v.3l-.3.3v.3h-.3v.3h.3v.7h-.7v1h-.3l-.3.3v1h.7v.7h-.3v.3h.3l.3.3h.7v-1.3h-.3v-.3l.3-.3v-1.3h.3v.3h.3l.7.3-.3.3v2.3h.7v.7h-.3v.7h-.7v2.3l.3.3h1v1.3h.7v-.3l.3-.3v.3h.7v-.3l.3-.3v-.3h-.3v-.3h-1v-.3h-.3v-.7h2v.3h.3l.3.3h1.3v1h.3v.3h.3l.7.3h1v1.6h-1.3v1h.3v.3h.3v.7h.7v-1h.3v.3h2v-.3h.3v.3h.4v.7h1.6v-.3h.4c.7-.3.3.3.3.7h.3c.7-.3.3.3.7.7h2.3v-.3h.3v-.7h-.3v-1.6h.7v1.6h.3c.7-.3.3.3.7.7h2.6v1.3h.7v-.3l.3-.3v-.3h-.3v-.7h.3l.7.3h.7v-.3l.3-.3v1h-1v1.6h.3V35c.7-.3 1.6 0 2.3 0v.7h2.3v.3h.3v.3h.2V36h.3c1-.3.3.7.7 1h1.3v.7h.7v-.3h.3l.3.7h.4v.3h.3V38l.3-.3v.3h1.3v-.3l.3-.3v.3h.3V37h.3v-.3h.3l.3.7h.3v.3h.3v.3h.3l.3.3h.3v.3h1.3V38h.3v.7h.3l.3.3h.3v.3h.3v.3h.3v.7h.3v.3h.3v.3h-.3v.3h-.3v.3l-.7.3v.7h.3v.3h.7v.7h-.7v.3h-1v-.7h.3v2.6h-.3l-.3-.3h-1.6v.7h.7v.7h-1.3v-.7h-1v-.3h-.3v-.3h-1.6v.7h-.2v1h.3v.3h.3v.3h-.3v.3h-.3v-.3H62v.3h-.4v-.3h-.3l-.3-1h-1.4v-.3h-.3v.3H59v1.3h-.4v-.3H57v-.7h.3v-1h-2v.7h-.7v-1h-.3l-.3.7h-.3v.3H53v.3h.3v.3h1v-.3c.3-.3 1.3-.3 2 0v.3h.3v.3c-.7.3-1.3 0-2.3 0v.3c-.3.3-1 .3-1.6 0v-.3h-1V47h-.3v-.3h-.3v.3l-.3.3-.3-.3h-.3c-.7 0-.3-.3-.3-.7h-2.3c0 .3-.7 0-.7.3v.3h-.3c-.7 0-.3-1-.3-1.3H45v-.7h-.7v.3l-.3-.3v-.7h-.4v-.3h-.3v.3h-.7v-2h-2.3v-.3H40v-.3h-1c.7-1.3-1.6-.3-2.3-.7v.1h.3v-.7h-.3V40h-.3v.3h-.3l-.3-.3h-.3v.7h-.3l-.3.3v.3h-.3v.3l-.3-.3h-.7v3.3h.3v.3h.3v-.7h.3v-.3h.3c.3.7 0 1.3.3 2h1.6v.7h.7v1h-.7v-.3h-.3v.3h-1v.3h-.3v-1h-1v.3l-.3.3v1h.3c1 0 .3 1 .3 1.3h.3c.7-.3.3.3.3.7h2v-.3h.3l.3.3h.3v.3l-.7.3v.3h-.3v.3h.3v.3-.3l.3-.3c.7 0 .3.3.3.7h.3c.7-.3.3.3.7.7h.8v-.7h1v-1.4h-.3v-.3h.7V52h.3c.7 0 .3 1 .3 1.6h.3c.7-.3.3.3.7.7h.7V54l.3-.3.3.3v.3h-.3v.3h-.3v.3c-.3.3-1 .3-1.3 0v-1h-.4v-.3h-.3v.3l-.3.3-.3.3v-.7h-.3v.3l-.3.3v1h.3c.7-.3.3.7.3.7v.3h.3v-.3h.3c.7 0 .3.7.3.7h1v.3h.3v.3h1V57h1.3v1.3h.7V57h.3v-.3l.3-.3V56h1.3v1.3h-.7v.7h.3c.3-.3.3 0 .7.3h.3v.3h.6v.3h1.6v.7h.3v.3h.3v-.7h.3v-.7h1v.3h.3v.3h.3V59h.3l.7.3h.3V59h.3l.7.3h.3v.3h.3v-.3l.3-.3.3.3h.3v.3h1.6v-.3h.3l.8-.3h.3v-.3h.3v.3h1v-.7h.4V58h.3l.3 1h.7v-.3h.3c1-.3.3.7.3 1v-1h.3l.3.3h1v-.3h.3l.3.7h.3v.3h.3v-.3c0-.3.3 0 .7-.3v-2h1.3v.3h.3V57h.3c.7-.3.3.3.3.7h.7v-1.3h1v-2h1.3v-.3h-.3l-.3-.3h-.3v-1.6h2v-.7h.3l.7.3h1.6v-.3l.3-.3v.3h.3v-.3l.3-.3v-.7h.7v2h.7v-1.6h.3l.7.3h.3v-.7h.3v-.3h.3v-1.6h-.5v-.7h.3v-.7h.3v-.3h.3v-.3l.3-.3v-.3h-.7v.7h-.3v.3h-.7v.7h-.7v-.7h.3v-.3h.3v-.7h.3v-.3l.7-.3v-.3l.3-.3v1.6h.3v-.3h-1v-.7h1.6v-2.3h-.3v-1.2M-55.5-.1h.3-.3v.4zm.6 0c-.7-.7-.3 0-.3 0zm192.3 50.2c-.3.3-1 .3-1.3.3v.3h-.7v.7h.3v-.3c.3-.3 1 0 1.6 0v.3h.3v-.3h.3z" id="path10" style="fill:#fff"/><path class="st1" d="M129.8 45.9h-.7v-.6h.3l-.3-.3h-.3v-.3h.3v.3h.7zm.4 7.5h-1.3v-.3c.3 0 1.3.3 1-.3h.3zm-2.3 1h-1.6v-.3zm-1.4-8.2h.7v.3h.3v.3h-.3v.3h-.7zm-9.5 1.6h-.3v-.3zm-1 9.9-.3-.3h.3zm-.9-.3zm-.7.6Zm-10.2-10.2h-.6v-1c.7.3 0-.7.7-.3v1.3zm-.9-.6-.3.3h-.4c0-.3.3-1-.3-.7h-.3v-.7h1.3zm-2 8.8h-.7v-1.6c.7.3 0-.7.7-.3zm-2-11.4h-.7v1.3h-1.3v-.7l.3-.3v-.3h-.3v-.3H97l-.3-.3h-.3v-.7c.7.3.3-.7 1-.3v.7h.3v.3h.3v-.3h1zM98 51.1h-.3v-1.3h-.3v-.3c.7.3 0-.7.7-.3v1.9zm31.8-9.8h-.7V41Zm-2.3-8.5h-.7v-.3h.7zm-6.2 3.6h-.7V36h-.3v-.3c.7.3 0-.7.7-.3v.3h.3zm-3.9.3-.3.3h-.3l-.3-.3h-.3v.7h-.7c-.3-.3.3-1-.3-.7h-.3v-1h.7v-.3c.7.3 0-.7 1-.3v.3h.3v.3h.3v.3h.3v.7zm-6.3-12.1h-.7v-.7h.7zm-4.6 8.2-.3.3h-.3v-1h.7v.7zm-.3 1.3h-.6v-.7h.7v.7zm-1.3-1.3h-.7v.3h-.3v-.3h-.3c0-.3.3-1.3-.3-1h-.3v-.7h.3v.3h.3v.3h.3v-.3h.3c0 .3-.3 1 .3.7h.3zm-2.6-10.5-.7-.3h-.3v-.3l.3-.3h1v.7h.3v.3h-.6zm1.3 0h.7v.7h-.7zm-2.3-.4h-1v-.7h1zm-.7 9.5zM98 28.5h-.7v-.7h.7ZM97.4 18h-.7v-.7h.7zm-2.7 10.2-1 .3v.3h-1.3v-.3h.3v-.3c.3 0 1 0 .7-.3h1.3zm-1.9-7.6.3.7h-.3zm-.4 6.2h-.7v-.7h.7zm-1.3 1.7-.3-.3h.3zm-1-4.3h-.3v.3h-.3v.3h.3v.7l-.3.3h-.3l-.3-.3h-.3v-.7h.7v-.7l.3-.3zm-1.9-3.3-.3-.7h.3zm13.7-5.9Zm.7-.3h.3v.3Zm2.3-.3h1.3v.7h-1.3zm9.5-2.6.3.3h.3v.3h-.7v-.6zm10.8-6.3zm0-5.2h1v.3h-1zm1.7 4.2h.7v.7h-.7zm1.3-.6zm.6.3h.7v1h-.7zm5.9 32.8c.7 0 .3-.7 1-.3l.3.3h.3v.3h-.3v.3h-1zm4 2.3-.7.3v-.3h-.3v.7h-.3v.3l-.3.3v.3h-.7v-1.6h-1V39h-.3v-.3h-.3v-.3h2.3V36h-.7c-.3.3-1.3.3-1.6 0v-.3h-.3v-.3h.3V35l.3-.3v.3h.7v-.3l.3-.3v-.3h-.7v-.3h-.3v-.3l.3-.3v-.3h-.3v-.3h-1v.3h-1.9v.7h-.3v-.3h-1.3V33h-.3v-.3l.3-.3v-1h-.7v-.3h-.7v.3h-.3v-1h-.7v.3h-.3v.3h.3v.3h.3v.3h-1l-.3.3v-.3h-1v-2.3h-.3V29h-.7v-.3h-.3V28h-.3v.3c0 .3-1 0-1.3.3v.3h-.3v.3l-.3.3v-.3h-.7v-.3h.3v-.7h-.3l-.3-.3h-.3v.3h-.8v-.7h-1v-.3h-.3l-.3-1h-.3c-.7.3-.3-.3-.3-.7h-.7v.3l-.3.3v-.7h-.3v-.3h-.3v.7h-.3v.3h-.3c0-.7-1.6-.3-2.3-.3v-.3h-1v-.3h-.3v-.3c-.7 0-.3-1-.3-1.3l-2.6-.7v-.3h-.3v-.3h-.3v-.7h-2.3v.3h-.3c-.7.3-.3-.3-.3-.7h-.6v-.3h-.3v.3c-.3.3-1 0-1.6 0v-.3h-1.6v-1h-.7v-1.3h-.3v-.3h.3V18h.3v-.7h.7c1-.3 2.3 0 3.6 0v-.7h1v-.3h.3V16c0-.3.7 0 1-.3V15h.3c.7 0 .3.7.3 1.3h.3V16l.3-.3V15h.7v-1h-.3v-.3h-.3v-.3h.3l.3.3h1v.7h-.3v.3h.3v.3h.7v-.3h.3v-.3l.7-1.3v-.3h.3v-.3h1v.3h-.3v.3h-.7v.3h.3v.3h1.6V13h.7v-1.3h1.6v.3h.3l.3.3h1v-.7h.7v-1h1v-.3h1v.3h.3v.3h.7c.7 0 .3 1 .3 1.6h.7v-.7h.7v-.7h-.8v-1h1.3v.3h-.7v.3h.3v.3h.7v-1h1.3v.3h-.3v.7h1v.3h.3V11h.3v-.7h-.3V10h.7v-.3l.3-.3v-.3h-1v-.3h-.3v-.7h1v.3h1v-1h.7V2.5h-.3c-.3-.3 0-.7 0-1.3h-.3V.5h-.3v-.7h-.3v-.3h-1v-.3h-.3v-.3h-1.3l-.3.3v.7h-.3v.3l-.7.3v.3h-1V.5h-.3l-.3-1h-1.6v.7h-.3l-.3-.3h-.4v.7h-.3c-.7 0-.3-.7-.3-1h-.7v1h-.3V.3h-.3v-.7h-.6v.3h-.3v.3h-.3v.3h.3v.3l-.3.3v.3h-.3v.3l-.3.3v.3h-.3v-.7H114V.9h-.7v.7h-.7v1.6h-.3v.3c-.3.3-1 0-1.6 0v.3l-.3.3-.7-.3v-.3h-.7l-.3.3v-.3h-.3v-.7h.3v-.3l.3-.3v-.7h-.7v.3h-.7v-.3h-.3v.7h-.7v.3l-.3.3v1.9h-.3c-.7 0-.3-.7-.3-.7h-.7v.3h-.4v.3h.3v.3h-.3v.3h-.3v-.3h-1v.3h-.7v-.7h-2v.7h-.7v.7h1v.3h-2l-.3.3v-.3h-.3v-.7h-1v.3H97v1.6h.3v.3L97 8v.3c-.3.3-1.3 0-2 0v-.7h-.7v.7H93v1h-.3v.3l-.3.3v-.7h-.3v-.3h-.3v.7h-.7v.7h2.3v-1h.3c1-.3.3.7.3 1h.3v.3h.3v-.3h.7v.7H95v.3h-.3v.7h-.3v-.3h-.7v-.3h-.3v-.3h-3v.7h.3v.3h-.3v.3l-.7.3v1.6l.7.3h.3v.3c-.3.3-1.3.3-2 0v-.7h.3v.8h-.3l-.3-.3h-.3c0 .3 0 1-.7.7V20h-.3v.3l-.3.3v.3h.3v.7h-.3v1h-.3v.3c1 0 .3 1 .7 1.3h.7v3h.7v-1.3h.3v.3h.3v.7h.3v-.3l.3-.3v-.7h.3c.3.3 0 1 .3 1.3h.3v.3h-.3v.3l-.7.3v1h-1v.7H90v-.7h.3c.7 0 .3.3.3.7h1v.3h.3v.3h1v-.7h-.3v-.7h.3v.7c.3-.3 1 0 1.6 0h.3l.3-.3v.3h.3v.3h.3v-.3h.3v-.7h-.3v-.3h.3v-.7h-.7V27h1v1.6h.3v.3h.3v-.3l.3-.3v.3h.3v.7h.7v-1h.3v.3h.3v.7h-.3v.3h.3v-.3l.3-.3v.7h.3v.7h.2v.3h-.7v1h.3l.3.3v-.3h.3v-1h1.6v2h.3v.3h.3v1h1.6v-.7h.3c.7 0 .3 1 .3 1.6h2.3v-.3h.3v-.3c.3-.3 1.3 0 1.6-.3v-.7h-.7v-.7h.3l.7.3h1v.3h.7v.7h-.7v1h.3v.3h1v-1.6h1.3V35h.3l.7.3h-.3v.3c0 .3-.7 0-.7.3v.3l.7.3h.3v.3h1.6v1.3h2v-.7h-.3v-.3h.3V37c.3-.3 1.3 0 1.6 0v-.7h.3c1 0 .3 1 .3 1.3h3.3v.3h.3v-.3c0-.3.3 0 .7-.3V37h.3v-.3h.7v.7h.2v.7h.3l.3.3h.3l.3.3h.3v.3h.3v.3h.3v.3h-.7v.7h.3c.7-.3.3.3.3.7h1v.3h.3l.3.3h.7v1l.3-.3.3.3h.3v.3h-.3v.3h-.7v-.3.3h-1v.3h.3v.7h-.7v.3h.3v.3h.3l.3.3h.7v.7h-.3v.3h-.3v-.3h-1v-.3h-.3v-1h-1v.3h-.7v.3l-.7.7v.7h-.3v.3h-1v-.7h-.7v-.7h-1.3v2.3h.2v.3h-.7v-.3h-.3v-.3h-.3v-1h-.7v.7h-.7v1.3h-.7v-.7h-.3V47h-.3v-.3h-.3v.3h-.7v1h-.3v-.3h-.3v-.3h-.7v.3h-.3l-.3-.3h-.7v.3h-.7v-1h-.7v1h-.7v-1h-.3v.3h-.3v.7h.3v.3h-.3v.3h-.3V48h-.3v-1h.3v-.7h-2.6v.7h-.7v.7h-.3l-.3-.3h-1v-.3h-.3v1h-.2v.3h-.3c-.3-.7 0-1.3 0-2.3h-.3c-.7 0-.3-.3-.3-.7h-1.3v-.7h.3v-.3h-.7v-.3h-2.4v.3h-.3v-.3h-.3v-.7h-.4v.3h-.7v-.3h-.3v-.3h1v-.7h-1.3v-.7h-2V44H96l-.3-.3h-.3l-.3-.3h.3v-1.3h-3v-.3h.3v-.3h1V40h-1v-.7.3H92v.3h.3v1H92v.7h.3l.3.3h.3l.3.3h.3v.3h.3v.3h.3c.3.7 0 1.3 0 2h-1.3v.3h-.3v.3h-.3v.3h-.3v.3h.3v1h-.7v.3h-.3v.3h-.3v1.6h.3c.7-.3.3.3.3.7h.7v-.7h1.6v-.3l.3-.3v-.7h.3v.3h.7v-.7h-.3l-.3-.3h.3c1-.3.3.7.7 1h.7v.3h.3v.3l-1 .3v1.3h.3v-.3h.3v-.7h.3v.7h.3v1h-.3v.3h-.7v-.3h-1.3v.3l-.3.3v.3h.3v.3h.3V52l.3-.3v.3h.3v-.3l.3-.3v.3h.3v.3h.3l.3.3h.3v.3l-.3.3v.7h.3c.7 0 .3.7.3 1h.3c.7-.3.3.7.3.7h1v.3h.3l.3.3h2.6v.3h.3v.3h.7v-1h-.7v-.3h-1v-.7h.7v-.7h.3v.3h1.3v-.7h2v1h1.3v-.3l.3-.3v-.3l.7-.3v-.3h1v.3h-.7v.7h.3l.3.3v1.6h-.3l-.3-.3h-3v.7h-.7v1.3h.3c.7-.3.3.3.3.7h1.3v-.3h.3v-2h.3l.7.3h.6v.3h.7v-.3h1.3v.3h-.3v.3h1v.2h-.3v-.3c.7-.3 2 0 2.6 0v-.3l.3-.3v.3h.3l.7.3h-1v1h.3v.3h-.3v.3l-.7.7v-1h-.3v-.3l.3-.3V57h-.3v.3h-.7v.3h-2.3v.7h-.3v1h.3V59l.3-.3V58h.3v.3h1.3V58h.3v1h.3v-.3h2.6V58h-.7v-.3l.7-.3V57h.3l.3.3h.3V57h.3v-.3h-.7v-.3c.3-.3 1.3 0 2 0v.7h-.3v.7h-.7v.3h-.3v1h.3v.3h.3V59h1v.3h.3v-1h.3l.3.3h.6V58h.3v.3h.3v.7h1v-1.6h-3V57c.7-.3 2 0 2.6 0v-.3l.3-.3V56h1.3v.7h.7v-.3l.3-.3v.3h1v.3h-1.3v.3l-.3.3v.3h-.3v-.3h.8v1h.7V58h.3v.3h.3v.7h.3v-.3l.3-.3V58h-.3v-.7h2v-.7h.7v-1h-.3v-.3h-.3v.3h-.3v-.3h-.4v-.7h3.6l.3-.3V54l.3-.3.3.3h.3l.3.7h.7v-.3h.3l.7.3v-.3h.3v-.3h-.3v-.7h2.6v-.7h-3V52h-.3v.3h-.7V52h-.3v.3h.3v-.7h.3v.3h.3l.7.3h.7v-.3l.3-.3v-.7h.3l.3.3h.3v-.3h.7v-.3h-.3v-.3h-.3l-.3-.3.3-.3v-.3h.7v-1h1v.3h.3v.3h.3l.7.3h.3v.3h-.3v.3h.7v-1h.3v-1h-.3l-.3-.3h.7v-.3l.3-.3v-.3h-.3v-.3h-.3v-1.6h.3v-.3h.3v-.7h-.3v-1h.7v-.7h-.3l-.3-.3h-.3v-.7h.3V41l.7-.3v-1h-.3v-.4ZM-64 53.4h-.7v-.7h.7zm-1.4-1.3-.3.7h.3v.7h-1v-.3h-.3v-.3h-1v-.3h.3v-.3h-.3v-1h1v.7l.3-.3v-.3h1zm-1.3-2.3zm-1.3 3.9h-1v-.3h-.3v-.3h1.3zm-1.6.4h-.7v-.7h.7zm-2.7 1-.3.3v.3h-.3v-.3h-.3v-.3c.7.3 0-.7.7-.3zm-2.2-1.4v.7h-1v-.7h1v-1.3h.7c0 .3-.3 1 .3.7h.3v.7c0-.1-1.3-.1-1.3-.1zm0-3.6h1.3v.7l-.3.3v.3h.3v.7h-.3v.3h-.3l-.3-.7h-.3v-1.6zm-2-3.6h-1.6v-.7h1.6zm-8.9 9.2h-1.3v-.3c.3 0 .7.3.7-.3v-.3c.7.3 0-.7.7-.3-.1-.1-.1 1.2-.1 1.2zm-1.6-8.2-.3 1h-.7v-.3h-.3v-.3h-.3v-.3h.3v-.3l.3-.3v-.3h1V46h.7v1.3zm-4.6 8.2h-.7v-1h.3v.3h.3v.7zm-3.9-8.5-.3.3h-.7v-.3h-.3v-.3h-.3v-.3h-.3v-.7h2v1.3zm-2 8.5h-.7V55h-.3v-.3h1zm-1.7-9.2v-.7h1v.7zm-2.9-1.9h-.7v-.3zm-1 7.8h-1.6v-.3l.3-.3h.7zm-6.5-2.9h-.7v-.7h.7zm-1-14.5h-1v-3h.7c0 .3-.3 1.3.3 1.3v.3h.3v.7zm-.7 14.5h-.7v-1.3h.7zm-2-39.1h-.7v-.7h.7zm-.9 3.3h-.7V13h.7zm0 28.2-.3-.7h.3zm-1-15.1h-.7v-.7h.3zm-1.3-7.2-.7.3v-.7c.7.3 0-.3.7-.3zm0 18.4h-.7v-1h.7zm-1-4.9h-.7v-.7h.7zm-.7-4.6-.3-.7h.3zm11.8-11.2h.7v.3h-.7zm1.3-12.1h.7v.3l-.3.3v.3h-.3v-.9Zm.4-1.6h.7v.3zm.3 4.6v-.7h.3v.7zm.7 7.5v.3h.3v1h-.7v-.7h-.3v-.7h.7zm.3-.3h.7v.3zm0-12.2h1v.3l-.3.3v.3h-.3zm1.3 11.5.3.7h-.3zm2.6-11.1h.7v1h-.7zm2.3 1.6h.7v.7h-.3zm3 10.8h.3v.3zm2.3 3h.3v.7h-.3zm.6 3.3h.7v1.3h-.3v-.3h-.3v-1zm1.3 2.3.3.3h-.3Zm.7-15.5h.7v.3h.3v.7h.3v.3h1l.3.3h.3v.3h-1v-.3h-.3v-.3h-1l-.3-.7h-.3zm2.9 18.4.3.3h-.3zm0-11.1c.7 0 0-.7.7-.3v.3h.3l.3.3h.3v.7h-.6V17h-.3zm-1.9 11.4-.3-.3h.3zm4.9-2.6zm19.7 26.3h-.7v-.7h-1.3v-.7h.3v-.3h-.3v-.3h-.7v.3c-.7 0-.3-1-.3-1.3h-.3v-.3h-.3v.7h.3v1h-1.6v.3h-.3v-.3h-.3v-.3h-.3v-.3h-.3l-.3-.3h-.7v-.7h1.3v.3h.3v.7h.3V49h.3v-.3l.7-.3v-.3h-1.3v-.3h-.3v-.3l.3-.3v-.7h-2.6v.3l-.3.3v.3h-.7v.7h.3v.3h-.7v.3h-.7v-.3h-.3v-.7h-.3v-.3h-.7v-.3h-.3v-.3h-.3v-.3h-.3v-.3h-1v-.7h.7v-.7h-.7v.7h-.3v.3l-.3.3v-.3h-.3v.3h-.3v.3l-.3.3h-.3V46h.3v.3l-.3.3v.3c-.7.3-1.3 0-2 0v-2h-.7v3.3h-.3v.3h-.5v.3h-.3v.7l-1.3-.3v-.3h-.4v-.3h-.3v-1h-.7v-1.3h.7v-1h-.3V45h-.4l-.3-.7h-.7v.3c-.7.3-1.6 0-2.6 0v-.3h-.3v.3h-.3v1h.7v1.3h-.7v-1h-.7v.7h-.3l-.3-.3h-.3V46h-.3v1.3h-.3v.3h-.3v1h-.3c-.7 0-.3-.7-.3-1h-.3v-.7h1v-1.3h-.7v1h-.3v.3c-.3.3-1 0-1.6 0v-1h-.3l-.3-.3h.3v-.7h.6v.3h.3v.3l.3-.3v.7h.3v.3h.3v-2.6h-.7v.3h-.3v-.7h-.3v-.3h-.3v.3l-.3.3v.3h.3v1.3h-.7v-.7h-.3v-.3h-.3v-.3h-2.3v.7h-.7v-1h-.3v.3l-.3.3v1.3h-.7v-.3h-.3l-.3-.3.7-.3v-.3h.3v-.3h-.3v-.3h-.3v.3l-.3.3v.3h-.6l-.3-.3h-.7v.3h-.7v-.3h-1v-.7h-.7v.3h-.6v-.3h-.3c-.7.3-.3-.3-.3-.7h-.4v-.3h-1.6v-.7h1l.3-.3v-1h-.3v-.3h-.4V40h-1.6v-.3h-.3v-.3h-.3v-.7h-.3v-.3h-.3v-3h.3V35h.3v-1.3h-.3v-.3h-.3v-1h-.3v-.3h-.3v-.7h.3v-.3h.3v-.7h-.7v-.7h.3V29h-.3v-1h.3v.3h.3V28l.7-.3V27h-.3l-.3-.7h-.3v-.7h1v-3.3h.3v-1h.3c.3.3 0 1.3.3 1.6h.3v-.3l.3-.3v-.7h.7v-.7h-.3v-.3l.3-.3V20h-1v-.7h.7V19h.3v-.3h.7v-.3l.3-.3v.7h.7V18h.3v.3h.3v.3h.3v-.3h.3v-1h-.3v-.7h.3c.7-.3.3.3.3.7h2.3V17l.3-.3V16h-.3v-.7h.3V15c0-.3.7 0 .7-.3V14h.3l.3.3h.7v-.7h.3c.7-.3.3.3.7.7h.7V14l.3-.3v.3h.3l.3.3h.7v.7h-1v-.3h-.3v-.3h-.3v1.3h.3v.3h.3v.3h.3v.3h.3v.3h.3v-.3h.3v.3h.3v-.3h.3v-1h.3v.3h1l.3.3h.3v1.3h-.3v.3h.7v-.3l.3-.3c.7-.3.3.3.7.7h.3v2h-1v.7h.3c1-.3.3.7.7 1h.3v.3h.3v.3h-.3v.3h.3v.3h.7v.7h-.3v.3h.3l.3.3h.3v.3c0 .3-.3 0-.7.3V26h-.3v.3h.3v.3h-.3v.3h-.3v.7h.7v-1h1v2h.7v-.3h.3v.3c.7 0 .3 1 .3 1.3h2.6v.3h.3v-.3h.7v-.3c0-.3.7 0 .7-.3v-.7h-.5v.7c0-.3 1 0 1.3-.3v-.7h-.3V28h-.3v-1h1.3v-1.6h.3v-.3h.3v-.3h-.3v-.3h-.3v-.3h-.7v-.7h-.3v-.7h-.3v-1h.3l.3.3h.3v.3h.3v-1h-.3v-.3h-.3c-.3-.3 0-1.3 0-2h.3V19h-.3v-.3h-.3v-.3h-.3V18h-.7v-.3h.3v-1.3h-.3V16h-.3v-.3h-.3c-.3-.3 0-.7 0-1h-.7v-1.6h-.3v-1.3h.3v-.7c-.7 0-.3-1-.3-1.3h-2v-.3h-.3v-.7h-.3v-1h.7v-.7h-.3c-.7 0-.3-.7-.3-1h-1.3v.7h-1.3v-.3h-2.3v-.3h-.3v-.3c.3-.3 1 0 1.3 0v-.7h-.7v-.7h.3v-.3h-.3v-.3h-.3v.3h-.3v1.3h-.3v-.3h-.3v-.7h.3v-.3h-.3v-.3h-.3v1h-.3v.3l-.3.3c-.3-.3 0-1-.3-1.6h-.7v1h-2.3V3.6h.3v-.7h-.3c-.7.3-.3-.3-.3-.7h-.7v.7h-.7v1h-1.3v-.7h-.3.7v-.3h-.7v-.7h-1.6v.7h-.3c-.7.3-.3-.3-.3-.7h-2.4v2.3h-1.6v-.7h-.3v-.3h-.3v.3h-.7v-.3h-.3v-.3h-.6v.3l-.3.3v2h-.3v-.3h-.3v-.3h-.7v.7h.3v.7h-.3v.3h.3v.3h.3v-.3h.3v.3h.3v-1h.3v-.3h.3v-.7h.7v1h-.3v.3h-.7v1.6h-.3v.3h-.3l-.3-.3h-.3v-.3h-1v.7h-.7V7.2h-1v.3h-.3v1.6h.3v.3l-.3.3v.3h-.3v.3h-.3v.3h.3l.7.3h.3v.7h-.7v.3h-.3l-.3-1h-.3v1h-.3v.3l-.7.3v.7h-1v2h.7V15l.3-.3v-.3h-.3v-.7h.3V13h1v.3h-.3v.3h-.3v.7h.3l.3.3h.3v-1h.3c.3.3.3 1 0 1.6h-.3v.3h-.3v.7h-.3v.3h-.3v.3h-2v.7h.3l.3.3h.3v.3h-.3v.3h-.3v.3h-.3v.7h-1v.3h-.3v.3h.3l.3.3h.3v.7h-.3v-.3h-1.3v.3h.3v.3h.3l.3.3h-.3v.3c0 .3-.3 0-.7.3v.3h.3v.3h.3l.7.3h.3v-.3h.3v-.7h1v.3h.3c.3.7.3 1.3 0 2h-.3v.7h.3v.7h-.3c-.7 0-.3-.7-.3-.7h-.3v-.7h.3v-.7h-.7v.7h-1v-.7h-1.3v.3h.3c.7 0 .3.7.3.7h.7v.7h-.3v.3h.3v.3h.3v.3h-.3v1.6h-.3v.7h.3c.3.3.3 1.3 0 2h-.7v1.3h.7v-.3h.3v.7h.3v.3h-.3v1.6h.3v.7h-1v.7h.3v1.3h-.3v.7h.7v-.3l.3-.3.3.3h.3v.3h-.3v.7h.3v.3h.3v.7h.3v-1h.3l.7.3h.3v1.6h-.3v.3h.3v.7h-.7v1h3v.7h-.3v.3h-.7v.7h.3v.3h.3v-.3h.3v1h.3v.3h.7v1h-.3v1.3h-.7v1.3h1v.3h.3v.3h2.3v.3h.3v.3h.3l.3.7h1.6v-.3h.7v3h.3c.7 0 .3.3.3.7h.7v-.3l.7-.3v-.3h.3v.3h1.3v.3h.3v.7h-1v1h.3v.3h.3v-.3c.3-.3 1 0 1.6 0v.3h1v-.3h.3v-.3h-.7v-.7h.3l.7.3h.3c.7 0 .3.3.3.7h.3v.3h.3c.3.3 0 .7 0 1.3h1.6V56h.3v-.3h.3c.3.3.3 1 .3 1.6h.7V56h.3v-.3h.3v.3h.7v-.3h1.3v.7h3.9v-.7h.3c.7-.3.3.7.7.7h2.3v1.3h.3c.7-.3.3.3.3.7h1.3v-3.3h-.3v-.7h.7v-.3h.3v-.3h-.3v-.3h.3v-.3l.3-.3v.3h.3v.3h.6v.3h.3v.3h.3c.3 1 0 2 0 3.3h1V57h.3v-1h.3c.7-.3.3.7.3.7h.3v.3h.3v.3h.7V57h.6v-.7h-.7v.3h-.3v-.3h-.3l-.3-.3.3-.3v-.3h.3v-.7h-.7v.3h-1v-.3h-.3c-.3-.3-.3-1 0-1.6h.3c.7-.3.3.3.3.7h.3v.3h1.3v.3h.3c.3 0 .7 0 .3.3h.3v.3h.3v.3h.3l.3.3h1v-.3l.3-.3.7.3h.7V55l.3-.3v-.3c.3-.3 1 0 1.3 0v-.7h.3v-.3c.7 0 .3 1 .3 1.3h1.3v1h.3v.3h.7v-.7h.3V55l.3-.3v.3h.3v.3h.3c.3-.3 1 0 1.6-.3v-.7h2v-.7h.7v-.7h.7v-.7h.2c-.6.2 0-.4-.3-.7" id="path12" style="fill:#fff"/><path class="st1" d="m-44.321 2.223-1 .02-.013-.7 1-.02z" id="path14" style="fill:#fff;stroke-width:.99998432"/><path class="st1" d="M-107.4 2.2c-.3 0 0 .7-.7.3v.7h.7zm515.4 44-.3-.3h-.3v-.3h.7zm-3.3-1h-.7v-.7h.7zm-1 1.3-.3.3h-.3v-.3h-.3v-1h1zm-2.2-1.9h-1v.3h-.3v-.3h-.3v-.3l.7-.3h.3l.3-.7h.3zm-13.2 7.2h-.7v-.7c.7.3 0-.7.7-.3zm-5.2-5.3zm-.7 6.9h.7v1.3h-.3v-.3h-.3zm-.3-10.1h-.3v.3h-.3l-.7-.3h-.3v2h1v.3h.3v.7h-.3v.3h-.3v-.7h-.3l-.3-.3-.3.3h-.3v-.3h-.3v-.3h-.3l-.3-.3h-.3v-1l.3-.3-.3-.3h-.3v-.7h.3l.3.3h.3v-.7h.7v.3h.3v.3h.3v.3h1.4zm0 10.8h-.7v-.6c.7.3 0-.7.3-.3v.3h.3zm-1.6-.7h-.7v-1.3h.7zm-3 0h-.7v-.7h.7zm-5.6-10.1h-.3v.3h-.3v-.3h-.3V43c.3.3 0-.7.7-.3v.3h.3zm-1.6.6h-.3v.3h-.7l-.7-.3h-.3v-.3c1 .3.3-.7 1.3-.3zm-6.9 6.2h-.7v-1h.3v.3h.3zm-.7-6.5zm-2.6 1.9h-1v-.7h1zm-1.3-6.2h-.7V39Zm-3.3-27.2h-.3v-1l.3.3h.3v.7zm-.3 1h-.7v-.3zm-.7 1.3-.3.3v.3h-.3v-1h.3zm-.3 1zm-.3 27.2-.7.3v-.7zm-2-2.6h-.3v-1h.3zm-.6-24.6-.3.3v.3h-.4v-.7h.7zm-.7 21.6h-.7v-.3h-.3V36c.7 0 0-.7.7-.3v.3h.3zm-1.6-6.5c-.3-.7 0-1.3-.3-2h-.3v-1h.7zm8.2-10.5h.7v.3h-.7zm23.3-2.3V19h-.7v-1.3zm-21.4.9h1v.3h.3v-.3h.7v-.3l.7-.3-.3-.3h-.3v-1h.7v.7h.7v.7h1v-.7l.7-.3-.7-.3h-.3v-.3h-.3V16h-.3v-.7h.7v.7l.3-.3v.7h.3V16h-.3v-.7h1v.3h.3v-1h.7v.7h.7v-.7h.7l.3.3.3-.3v-.3h.3V14h-.3v-.3h-1v.3h-.3l-.3-.3h-.3v-1h.3v-.3h.3v-.3h1.6v.7c-.3 0-.7-.3-.7.3v.3h.3v.3h1.6V13h.7v-.3h1.3v-.3l.3-.3v-.3l.3-.3h1v.7h-.3v.3h.3v.3h2v-.7h.7v.7h1v.7h2.3v-.7h2v.7h.3v-.3h2.3-.3v.3h-3.3v.7h-.7v2.3h-1.3V16h-.3v.7h-.3v.3h-.3v-.3h-.3v.3h-.3l-.3-.3h-.3v1.6h1v.3h.3v.3h.3v.7h1.3v.7h-1v.3h.7v.7h.3V21h.7l.3.7h.3v.3h-.3v.3h-.7V22h-.3l-.3-.3h-.3v-.3h-.3v-.3h-.3v-.3h-.3v-.3h-.3V20h-.3v-.3h-.3l-.3-.3h-.3V19h-1v-.3h-.3v-.3H371v.7h.3v-.3h1v.7h-.3v.3h-.7v-.3h-.3V19l-.3.3v.3h-.3v.3h-2v-.3h-.3v-.3h-3.3V18h-1.3v2.3h-1.6l-.7-.3h-.3v.3h-1l-.3-.3h-.3v.3h-.7v-.7h-.3v.3h-.3Zm11.8-15zm2 .3h.7v1.3h-.7zm1.3 1h2.3v-.7h-.7v-1h2v.7l-.3.3.3.3h.3c0 .3 0 .7.3.3h.3v1h-1.3l-.3-.3h-.3v.7h-.3v.3h-.7v-.7h-.7v-.3h-.3c0-.3 0-.7-.7-.3h-.3v-.3Zm8.9 5.9h.3v.7h-.3zm1.6 3.9.3-.7h-.3v-.3h.7l.3 1.3h.3v.3h-.3v.3l-.7.3v.3h-1V16h.3v-.3zm0-6.9h1v.7h-1zm1 14.5h-1.3l-.3-.3h-.3v-.3h.3V21h.3v.3h.3v.3h.7v.7zm-1.3 1.6h-2.3v-.7h2.3zm-6.2-1h-.7v-.7h.7zm-2.3 2.6h-.7v-.7h.7zm-3-4.9-.3-.6h.3zm0 6.2h-.3v.3h-.3v-.3h-.3v-.3h1v.3zm-6.5.7-.7.3v.3h-.3l-.3-.3h-.3v-.3zm-2.3 0h-.3v-.3Zm21.6-8.5h1v.7h-.7v-.3h-.3zm1.3-1.3h.7v.7h-.7Zm.7.9h.7v.7h-.3zm0-2.9h.7v.3Zm1 2.3c.7.3.7-.3 1-.3v.7h-.3v.3h-.7zm26.2 29.8v-1h-.3v-.3h-.3v.3l-.3.3v.3h.3v.7h-.3v.3h-.4v-.7h-.3v-.3H411v.3h-.4V47h-.3v-.3h-.7v-.3h-.3v-1.6h1v-.3h.3v-.3h1.3v.6h-.3v.7h1.3v.7h1.3v-.7h-.6v-.3h-.3v-.3h.3v-1.3h-3v-.3h-.7v-.7h-.3v-.3c0 .7 0 1.3-.3 2h-.7V44h-.7v.3h-.3v-.7h-.3v-.3h-.3v.3h-.7v-.3h-.3v.3h-.3v1h-1.3v-.3h-.3v-.7h-.3v-.3h-.7V43h-1.6v.3h-.3v.3h-.3v1.3h-.3v.7h-.3c-.7.3-.3-.3-.3-.7h-.7v-2.3h-.3v.3h-.3v.7h-.3l-.3-.3h-.7v.3h-.3v.7h.3v1h-.7v.7h.3l.7.3h-.3v.3l-.7.3v.3h.3v.3h.3v1.3h-.3v.3h-.3c-.7.3-.3-.3-.3-.7h-.7v-3h-.3v-.3l1-.3v-1.3h-.7v-1h-.3v.3h-.8v-.3h-.3v-.7h-.3v.3c-.3.3-1 .3-1.6.3v-.7h-.8v.7h-2.3v1h-.3v.3h-.3v-.3h-1.3v1h.3v.3h-.7V44h-.7v.7h-.7v-2.3h-1v-.3h-.3l-.3-.3h-3v-.3l-.3-.3h-1.6v.7h-2.6v-.3h-.3v-.3h-3.6v-.7h-.7v.7h-1v.3h-.3v.3l-.3.3c-.7.3-.3-.3-.3-.7h-1.6v1.6h-.3l-.3-.3h-.3v-.7h-.3l-.3-.3h-1.6v-.7h1.3v-1h-.3V40h-.3v.3h-1V40h-.3v-.3h-.3l-.3-.3h-.3l-.3-.3h-.3l-.3-.3h-.3c-.3-.7-1.6 0-2.3-.3V38l.3-.3V37h-.3v-.3h-.3v-.3h-.3V36h-.3v-.3h-.3v-1h.3v-1.3h-.3v-.7h-.3v-.3h-.3v-.7h.7v-1.3h1v-.3h.7v-1.3h.3l.7.3h.3v-.3h1v-.3c.3-.3.7 0 1 0v-.3l-1.3-2c.7 0 .3 1 .3 1.6h.3c.7-.3.3.7.7.7h.3v-1h.7v.7h-.3v.7h.3c.7 0 .3.7.3.7h1.3l.3-.3V29h.3v-.3h-.3v-.3h-.3v-.7h.3V27h.7v-.3l1-.3v-.3h.3v-.3l.3-.3v.7h.7v1.6h-1.5v1.3h.7v-.7h.3v-.3l.3-.3v-.7h.3v.3h3.6v-.3l.3-.3v-.3h.3v-.3h.3v-.3l1-.3v-1.3h.3c1 0 .3.7.3 1h.3V25h.3v-.7h2.3v2.3h2.3v-.7h1.6v.7h.7v-.7h.3v.3h.3l.3.7h.3v-2h.3c1 0 .3 1 .3 1.3h.7v-2h-.7v.3h-.3v-.3h-.3v-.3h.7v-1h.3l.3.3h.7l.3-.3v.3h1l.3-.3v-.3h.3v-.7h.3v.3h.7v-1h.3v.3h.3l.3.3h-.3v.7h1v-2.6h.1v-1.2h-.3v-1h1v-.3h-1V17h-.7v.3h-.3v-.7h.7v-.3l.3-.3v.3h1.3v-.7h-.7V15h.3v-.3h-.3v-.3h-.7v.3c-.3.3-1 .3-1.3 0v-1h-.3v-.3h.3l.3.3h.7v-.3h.3l.7.3h.3v-.3h-.3v-.3h-.7v-.3h-.3v-.7h-.7V9.5h-.3c-.7.3-.3-.3-.3-.7h-.3v-.3h-.3v-.3h-.3v-.3h-.3l-.3-.3h-.7v.7h.7v1.6h-.3l-.3-.3h1v.3l-.3.3v-.3h-.3V8.3h-.7V6h-.3l-.3-.3h-.3v-.3h-1v.3h-.3v.7h.3v.3h.7v1h-.3V8l-.3.3V8h-1.3v1h-.3v-.3h-.3V8h-.3c-.7.3-.3-.7-.3-.7h-.7v-.7h.3V5h-1.3v-.7h-2.3v.3l-.3.3v-.7h-.3l-.3-.3h-.3v.7h-1.3v-.3h-.3V4h-.3l-.3-.7h-.9v.3h-.3v-.3h-.3V4h-.4v.3c-.3.3-1.3 0-2 0V4h.3v.7h-.7V5l-.3.3v-2h-.3v.3h-.3v-.3h-.3v-.7h-.7v1h-.3v-.7h-.4v-.3h-.3v.3l-.3.3v.7h-.3v-.3h-.7v.7h-3v1.3h-.7v-.3h-.3v.3h-.3l-.3.7h-.3l-.3-.3h-.3v-.7h-.3v.3c-.3.3-1 0-1.3 0v1h-1.3v.7h-1v.3l-.3.3v.3h-.3v1h-.3v.3l-.3.3v.7h1v-.7l.3-.3v-.3h.3v-.3h.3v-.3h.3V7.3h1.3V8h-1v.7h.7v.7h-.7v.7h.3v.3h.3v.3h-.3v.3h-.3v-.3h-.7v.3h-.3l-.3-.3h-.3v-.3h-.3v.3h-.3v.3h-.3v-.3h-1v.3h-.3v.3l-.3.3v.3h-.3v.3l-1 .3v2.6h-.3v.3l-.3.3v-.3h-.7v.3l-.6.3-.3-.3H350v.3l-.3.3v1h.3v.7h-.4v.3h.3v1.6h-.3v.3h-.3v.3h.3v.3l-.3.3v-1.6c-.3.3-1 0-1.3 0v.7h.3v.3h-1v.7h.3c.3 0 .7 0 .3.3h.3v.3h-.3v.7h.3c.7 0 .3.7.3 1h.3v.3h.3l.3.3-.3.3v.3h-.3v.3c-.3.3-1 0-1.3 0v2.3h-.3v1.3h.3v-.3h.7v.7h-1v.3h-.3v2.3h.3l.3 1h.3v-.7h.3v-2h.3l.3.3h.3l.3.3h.3l.3.3h-.3v.3l-.7.3h-.3v2.3h1v.7h-1.3V37h2.6v.3h.7v.7h-.3v.7h.3v.3h.3l.3.3h1v2.3h-.3c-.7.3-.3-.3-.3-.7h-1v.1h-.3v-.3h.3V40h-.7v.3h-.3v.7h.3v.3h.3l.3.3h.3v.3h.3v.3h.3v.3h.3v.3h.3c.7-.3.3.3.3.7h.3c.7-.3.3.3.7.7h1.6v.3h.3v.3h.3c.3.3 0 1.3 0 1.6h1.6v.3h.3v.3h.3v.3h.3v.3h-.3v.7h1.3v-.7h.7v-.7h-.3c-.7 0-.3-.7-.3-.7h-1.3v-1.3h-.3v.7h-.3v.3l-.3.3v-.7h-.3v-.3h-.3v-1h1v1.3h.3v.3h1v-.3l.3-.3.3.3h.3v.3h-.3v.3l-.3.3v.3h1v.3h.3c0 .7 1.6 0 2.3.3v.7h-.7v.3h-.3v.3h-.3v.3l-.3.3v.3h-.7v.3h.3v.3h.3c.7-.3.3.3.3.7h.3v-.7h.3v-.3h.3l.3.7h.3v.3h.3v-.3l.3-.3c1 0 .3.7.7 1h.3v-.3l.3-.3v-.7h-.3v-.3h.3v-.3c.3-.3.7 0 1.3 0v.3h.7v-.3h.3V49h-.3v-.7h1.3v.7h1v1h.3v.3l-.3.3v.3h-.3l-.3-.3h-.3v-.3h-.3v.7h-.7v.7h2.3v-1.6h.3c.7-.3.3.3.7.7h.7v-.7h.3v.3h.3v.3h.3v.7h-1.2v1.3h.7v-.3l.3-.3v.3h.3v.7h.3v-.3h.3c.7-.3.3.3.7.7h1.3v-.3l.3-.3v-.3h.3v-.3h1V52l.3-.3v-.3h-.3v-.3h-.3v.3h-2.6v-.7h.3V50h-.7v-.7h.3c.3 0 .3.3.3.3h.3v-.3l.3-.3v.3h.3v.3h1v.7h1.6v.7h-.3v.7h.3l.3.3h.3v.3h.3v.3h.3v.3h.3l.3.3h1v-.3l.3-.3v-.3h1v.7h1.6v-.3l.3-.3v-.3h1v-1.6h-.3v-.7h-.7v-.3h-.3v-.3l.3-.3v-.7h.3c.3 0 .7 0 .7.3h.3c.7-.3.3.3.3.7h.3l.3.3h1.6v-.7h.3c.7-.3.3.3.3.7h.3v.3h.3v.3h2.3v-.3l.3-.3v-.3h-.3v-1h.4v.7h-.3v.3h-.7v-.7h.3v-.7h-.3v-.3h.7v-.3h.3l.3.3h.3v.3h.3v.3h.3v1h.3v-2.3h.3v.3h.3c.3.3.3 1.3 0 2h-.1v.3h.3l.3.3h.7v-.3l.3-.3.3.7h.3v.3h.3v-.3l.3-.3c1-.3.3.7.3 1h1.6v-.3h.3v-.3h-.3v-.3h-.3v.3h-.7v-.3h-.3v-.3h.3V49l.3-.3v.3h1.3v-.7h1.3v-.7h.7v-.7h.3l.7.3h.3v-.7h.3v-.3h.3l.3-.3v-.7h1v3.9h.3v-.3h-.7l.3-.7h.3v.3h.3v-.3h.7v.7h-.3v.3h.3v.3h1v.3h.3l.3.7h.3v.3h.3v-.3h.3v.3h.3v.3h.3v.3h.3v.7h.3v-.7h.3V51c.3-.3 1.3-.3 2 0v1h.3v-.3l.3-.3v-1h-.3v-.7h.7v-.3h.3v-.3h-2v-1.3h.3c.7 0 .3 1 .3 1.3h1.3v.7h1v-.3h.3v-.3c-.3-.3 0-1 0-1.6h.3v.2zM-97.5 3.6h.3v.3h-.3zm201.7 1.3h-.6v-.4h-.3v.7h.9z" id="path16" style="fill:#fff"/><path class="st1" d="m172.788 5.846-.3.016-.037-.699.3-.016z" id="path18" style="fill:#fff;stroke-width:.99998677"/><path class="st1" d="m205.559 7.148-.7.02-.02-.7.7-.02z" id="path20" style="fill:#fff"/><path class="st1" d="M35.3 8.8h.7v1.3h-.7zm32.2 3h1.3v-.7h-.6v-.3h-.4v-.4h-.3l-.3 1zm-2.6.6h.3v-.3l.3-.3v-.4h-1v.4h.4zm55.7-1.3h-.3v.7h-.3v.6h1v-1zm184.4 3v-.4h-.3v.4zM-99.5 17h.7v-1.3h-.7zm469.1 1.3h1.3v.7h-1.3zm24.3.3v-.3h-.3v.3zm-226 5.6.3-.3v-.3h-.6v.6zm179.8 1h.3l.3-.3v-.3h-.3v-.4h-.7v.7zm-153.2 1.6v.7h.9v-.7h-.3v-.3h.3v-.3l.4-.3v.9h.6v-1.6h-1.6zm193.8-.9h.4v-.4h.3v-.6h-.7zm-414.6 2.3-.3-.3c-.3 0 0 .7-.7.3v.7h1zm194.2-1h-.3v.3h.3zm208 0h3v.7h-3zM34 29.1h-.7v.7h.3c.7-.3.3.3.3.7h.3v.3h.3v-1h-.3v-.3h-.3v-.4zm176.2.4h.3l.4-.4v-.3h-.4v-.3h-.6v.6h.3zm-116.5 1h.4v-1h-.7v.6h.3zm32.5 0h.3l.4-.4v-.6h-.7zm-29.8.6c-.7-.3-.3.7-1 .3v.3h.3l.3.7h1.6v-.7h.3v-.3h-.3v-.3h-.7v.7h-.7v-.7zm34.4 1.3h.7v-.7h-.3v-.3c-.7 0 0 .7-.7.3v.3h.3zm149.9 1.3h.4v-.3h-.4v-.3h-1l-.3.3v.3h-.3v.4h-.3v.6l.3.3 1.3.4V35l.3-.3v.3h.4v.4l-.4.3-.6.3v.4h1.3v.3h.3v-.3h.3v-2h-1.3zM109.5 35h-.7v2h.7v-.7h.7v-.7h-.3c-.7.1-.1-.2-.4-.6m155.5-.3h.3v.7h-.3ZM24.9 37.3l.3.4h.6V37h-.6Zm271.2-.3v-.6h-.6v.9h.3V37Zm-13.7 0h1.3v.7h-1.3zm-161.8 2h-2.3v.6h2zm2 .3c-1-.7-.3.7-1.3 0v.3h-.3v.7h.7V40l.3-.3V39h.7v.3zm-225 3.3h.7v-1.3h-1.3v-.7h-1.6l-.3.3v.3h.3v.3h.3v-.3l.3-.3.3.3h.3v.3h-.3v.7h.7v-.7h.3c.3.1-.1.8.3 1.1" id="path22" style="fill:#fff"/><path class="st1" d="m-58.826 40.622-.3.014-.014-.3.3-.014z" id="path24" style="fill:#fff;stroke-width:1.00003493"/><path class="st1" d="M366.7 39.3v.7h1.9v-.4h-.3v-.3zm28.5 2.6h-.3v1h.3zm-511.4 2h.3v.3h.7v-.6h-1zm23.9 0h.7v1h-.7zm1.7 1h.6v-1h-.6zm7.9-.3v-.3h-.3l-.3-.3c-.3 0 0 .7-.7.3v1h.3v.3h.3v-1zm423.8-1.7h.7v.3h-.7zM-68 44.6h.7v1h-.7Zm159.8-.4h-.7v1h.7zm-172.6 1h.7v.7h-.7zm186.7.3h.7v.7h-.7zm-121.1 2.3h.7v-.6h-.7z" id="path26" style="fill:#fff"/><path class="st1" d="m-83.589 48.202-.014.3-.3-.015.014-.3z" id="path28" style="fill:#fff;stroke-width:.99996001"/><path class="st1" d="M340.1 47.8v.7h-.3v-.3h-1.3v1.3h.7v-.7h.3v.3h.3v.3h.3v-.3l.3-.3v-.3h.3v-.3h.3v-.3h.3v-.7h-1c.5.3.1.6-.2.6m-245.4 2c-.3-.3 0 .7-.7.3v.7h.7zm307.4.3v.4h.3v.3h.7v-.3h.3v.3h.7v-1h-1.7zM2.9 51.5h.7v1h-.7Zm130.9.3c-.7-.3 0 .7-.7.3v.3h1v-.3h-.3zm1.9 0h1.3v.7h-1.3zm267.7 0v-.7h-.3v.7h-.3v.3l-.3.3v-1h-.7v2.3h.3c.7-.3.3.3.3.7h1v-.7h1.3V53h-1.3zm1.3-.7h-.6v.7h1.3l-.3-.3h-.4zm-455 3.3h.7v-1.3h-.7zm433.7-2h.3v-.3h-.3zm-432 1v1h.3v-.7zm122.7.3-.4-.3h-1v.3h.4v.4h.3v.3h.3v.7h.4v-.4l.3-.3zm326-.3-.6-.3h-.3l-.4.3v.3h.4v.4h1.6l.3-1.3h-1zm-13.4.3-.3-.3h-.7v-.3c-.3 0-.3.7-1 .3v1.3h.7v-.3h1v.3h.3v-.3h.3v.7h.3v.3h.3v-1h.7v1h-.3v.3h1V55h1v-.3h.3V54Zm19.3-.6c-.7-.3 0 .7-.7.3v.3h.3v.3h.7v-.7h-.3Zm-510.4 2.3h.3v-.3h-.3zm112.2 0c-.3 0 0 .7-.7.3v.7h.3v.3h.7l-.3-1.3v.3zm.6.6h.4v.4h.3v-1h-.7Zm2 0v-.7h-.7v1.3H9v.7c.7-.3.3.3.7.7h.7v-.7h.7V56Zm62 0 .3.3-.3-.3h.7v-.3c-.4-.3 0 .7-.7.3m55.5.4v.3h1.3V56h-.7z" id="path30" style="fill:#fff"/><path class="st1" d="m-91.56 57.953-2 .02-.007-.7 2-.02z" id="path32" style="fill:#fff;stroke-width:1.000049"/><path class="st1" d="M-88.3 57.4h.7v.7h-.7zm1 .3h.9v-.3h-.9zm312.9-.7h1v-.6h-1zm-117.1 1v.3h-.7v.4h.4l.6-.4v-.9h-.3zm1 0v-.6zm-.7 1h.3v.3h-.3z" id="path34" style="fill:#fff"/></svg>